G04 MADE WITH FRITZING*
G04 WWW.FRITZING.ORG*
G04 DOUBLE SIDED*
G04 HOLES PLATED*
G04 CONTOUR ON CENTER OF CONTOUR VECTOR*
%ASAXBY*%
%FSLAX23Y23*%
%MOIN*%
%OFA0B0*%
%SFA1.0B1.0*%
%ADD10C,0.078000*%
%ADD11C,0.024000*%
%ADD12R,0.001000X0.001000*%
%LNCOPPER0*%
G90*
G70*
G54D10*
X81Y348D03*
X81Y448D03*
X189Y349D03*
X189Y449D03*
X298Y448D03*
X298Y348D03*
X81Y112D03*
X81Y212D03*
X189Y213D03*
X189Y113D03*
X298Y212D03*
X298Y112D03*
G54D11*
X81Y242D02*
X81Y318D01*
D02*
X189Y243D02*
X189Y319D01*
D02*
X267Y112D02*
X219Y113D01*
D02*
X159Y113D02*
X111Y112D01*
D02*
X366Y103D02*
X327Y108D01*
G54D12*
X312Y361D02*
X369Y361D01*
X293Y360D02*
X371Y360D01*
X291Y359D02*
X372Y359D01*
X290Y358D02*
X373Y358D01*
X288Y357D02*
X374Y357D01*
X288Y356D02*
X375Y356D01*
X287Y355D02*
X375Y355D01*
X286Y354D02*
X375Y354D01*
X286Y353D02*
X376Y353D01*
X286Y352D02*
X376Y352D01*
X285Y351D02*
X376Y351D01*
X285Y350D02*
X376Y350D01*
X285Y349D02*
X376Y349D01*
X285Y348D02*
X376Y348D01*
X285Y347D02*
X376Y347D01*
X285Y346D02*
X376Y346D01*
X286Y345D02*
X376Y345D01*
X286Y344D02*
X376Y344D01*
X287Y343D02*
X376Y343D01*
X287Y342D02*
X376Y342D01*
X288Y341D02*
X376Y341D01*
X289Y340D02*
X376Y340D01*
X290Y339D02*
X376Y339D01*
X292Y338D02*
X376Y338D01*
X295Y337D02*
X309Y337D01*
X353Y337D02*
X376Y337D01*
X353Y336D02*
X376Y336D01*
X353Y335D02*
X376Y335D01*
X353Y334D02*
X376Y334D01*
X353Y333D02*
X376Y333D01*
X353Y332D02*
X376Y332D01*
X353Y331D02*
X376Y331D01*
X353Y330D02*
X376Y330D01*
X353Y329D02*
X376Y329D01*
X353Y328D02*
X376Y328D01*
X353Y327D02*
X376Y327D01*
X353Y326D02*
X376Y326D01*
X353Y325D02*
X376Y325D01*
X353Y324D02*
X376Y324D01*
X353Y323D02*
X376Y323D01*
X353Y322D02*
X376Y322D01*
X353Y321D02*
X376Y321D01*
X353Y320D02*
X376Y320D01*
X353Y319D02*
X376Y319D01*
X353Y318D02*
X376Y318D01*
X353Y317D02*
X376Y317D01*
X353Y316D02*
X376Y316D01*
X353Y315D02*
X376Y315D01*
X353Y314D02*
X376Y314D01*
X353Y313D02*
X376Y313D01*
X353Y312D02*
X376Y312D01*
X353Y311D02*
X376Y311D01*
X353Y310D02*
X376Y310D01*
X353Y309D02*
X376Y309D01*
X353Y308D02*
X376Y308D01*
X353Y307D02*
X376Y307D01*
X353Y306D02*
X376Y306D01*
X353Y305D02*
X376Y305D01*
X353Y304D02*
X376Y304D01*
X353Y303D02*
X376Y303D01*
X353Y302D02*
X376Y302D01*
X353Y301D02*
X376Y301D01*
X353Y300D02*
X376Y300D01*
X353Y299D02*
X376Y299D01*
X353Y298D02*
X376Y298D01*
X353Y297D02*
X376Y297D01*
X353Y296D02*
X376Y296D01*
X353Y295D02*
X376Y295D01*
X353Y294D02*
X376Y294D01*
X353Y293D02*
X376Y293D01*
X353Y292D02*
X376Y292D01*
X353Y291D02*
X376Y291D01*
X353Y290D02*
X376Y290D01*
X353Y289D02*
X376Y289D01*
X353Y288D02*
X376Y288D01*
X353Y287D02*
X376Y287D01*
X353Y286D02*
X376Y286D01*
X353Y285D02*
X376Y285D01*
X353Y284D02*
X376Y284D01*
X353Y283D02*
X376Y283D01*
X353Y282D02*
X376Y282D01*
X353Y281D02*
X376Y281D01*
X353Y280D02*
X376Y280D01*
X353Y279D02*
X376Y279D01*
X353Y278D02*
X376Y278D01*
X353Y277D02*
X376Y277D01*
X353Y276D02*
X376Y276D01*
X353Y275D02*
X376Y275D01*
X353Y274D02*
X376Y274D01*
X353Y273D02*
X376Y273D01*
X353Y272D02*
X376Y272D01*
X353Y271D02*
X376Y271D01*
X353Y270D02*
X376Y270D01*
X353Y269D02*
X376Y269D01*
X353Y268D02*
X376Y268D01*
X353Y267D02*
X376Y267D01*
X353Y266D02*
X376Y266D01*
X353Y265D02*
X376Y265D01*
X353Y264D02*
X376Y264D01*
X353Y263D02*
X376Y263D01*
X353Y262D02*
X376Y262D01*
X353Y261D02*
X376Y261D01*
X353Y260D02*
X376Y260D01*
X353Y259D02*
X376Y259D01*
X353Y258D02*
X376Y258D01*
X353Y257D02*
X376Y257D01*
X353Y256D02*
X376Y256D01*
X353Y255D02*
X376Y255D01*
X353Y254D02*
X376Y254D01*
X353Y253D02*
X376Y253D01*
X353Y252D02*
X376Y252D01*
X353Y251D02*
X376Y251D01*
X353Y250D02*
X376Y250D01*
X353Y249D02*
X376Y249D01*
X353Y248D02*
X376Y248D01*
X353Y247D02*
X376Y247D01*
X353Y246D02*
X376Y246D01*
X353Y245D02*
X376Y245D01*
X353Y244D02*
X376Y244D01*
X353Y243D02*
X376Y243D01*
X353Y242D02*
X376Y242D01*
X353Y241D02*
X376Y241D01*
X353Y240D02*
X376Y240D01*
X353Y239D02*
X376Y239D01*
X353Y238D02*
X376Y238D01*
X353Y237D02*
X376Y237D01*
X353Y236D02*
X376Y236D01*
X353Y235D02*
X376Y235D01*
X353Y234D02*
X376Y234D01*
X353Y233D02*
X376Y233D01*
X353Y232D02*
X376Y232D01*
X353Y231D02*
X376Y231D01*
X353Y230D02*
X376Y230D01*
X353Y229D02*
X376Y229D01*
X353Y228D02*
X376Y228D01*
X353Y227D02*
X376Y227D01*
X353Y226D02*
X376Y226D01*
X353Y225D02*
X376Y225D01*
X353Y224D02*
X376Y224D01*
X353Y223D02*
X376Y223D01*
X353Y222D02*
X376Y222D01*
X353Y221D02*
X376Y221D01*
X353Y220D02*
X376Y220D01*
X353Y219D02*
X376Y219D01*
X353Y218D02*
X376Y218D01*
X353Y217D02*
X376Y217D01*
X353Y216D02*
X376Y216D01*
X353Y215D02*
X376Y215D01*
X353Y214D02*
X376Y214D01*
X353Y213D02*
X376Y213D01*
X353Y212D02*
X376Y212D01*
X353Y211D02*
X376Y211D01*
X353Y210D02*
X376Y210D01*
X353Y209D02*
X376Y209D01*
X353Y208D02*
X376Y208D01*
X353Y207D02*
X376Y207D01*
X353Y206D02*
X376Y206D01*
X353Y205D02*
X376Y205D01*
X353Y204D02*
X376Y204D01*
X353Y203D02*
X376Y203D01*
X353Y202D02*
X376Y202D01*
X353Y201D02*
X376Y201D01*
X353Y200D02*
X376Y200D01*
X353Y199D02*
X376Y199D01*
X353Y198D02*
X376Y198D01*
X353Y197D02*
X376Y197D01*
X353Y196D02*
X376Y196D01*
X353Y195D02*
X376Y195D01*
X353Y194D02*
X376Y194D01*
X353Y193D02*
X376Y193D01*
X353Y192D02*
X376Y192D01*
X353Y191D02*
X376Y191D01*
X353Y190D02*
X376Y190D01*
X353Y189D02*
X376Y189D01*
X353Y188D02*
X376Y188D01*
X353Y187D02*
X376Y187D01*
X353Y186D02*
X376Y186D01*
X353Y185D02*
X376Y185D01*
X353Y184D02*
X376Y184D01*
X353Y183D02*
X376Y183D01*
X353Y182D02*
X376Y182D01*
X353Y181D02*
X376Y181D01*
X353Y180D02*
X376Y180D01*
X353Y179D02*
X376Y179D01*
X353Y178D02*
X376Y178D01*
X353Y177D02*
X376Y177D01*
X353Y176D02*
X376Y176D01*
X353Y175D02*
X376Y175D01*
X353Y174D02*
X376Y174D01*
X353Y173D02*
X376Y173D01*
X353Y172D02*
X376Y172D01*
X353Y171D02*
X376Y171D01*
X353Y170D02*
X376Y170D01*
X353Y169D02*
X376Y169D01*
X353Y168D02*
X376Y168D01*
X353Y167D02*
X376Y167D01*
X353Y166D02*
X376Y166D01*
X353Y165D02*
X376Y165D01*
X353Y164D02*
X376Y164D01*
X353Y163D02*
X376Y163D01*
X353Y162D02*
X376Y162D01*
X353Y161D02*
X376Y161D01*
X353Y160D02*
X376Y160D01*
X353Y159D02*
X376Y159D01*
X353Y158D02*
X376Y158D01*
X353Y157D02*
X376Y157D01*
X353Y156D02*
X376Y156D01*
X353Y155D02*
X376Y155D01*
X353Y154D02*
X376Y154D01*
X353Y153D02*
X376Y153D01*
X353Y152D02*
X376Y152D01*
X353Y151D02*
X376Y151D01*
X353Y150D02*
X376Y150D01*
X353Y149D02*
X376Y149D01*
X353Y148D02*
X376Y148D01*
X353Y147D02*
X376Y147D01*
X353Y146D02*
X376Y146D01*
X353Y145D02*
X376Y145D01*
X353Y144D02*
X376Y144D01*
X353Y143D02*
X376Y143D01*
X353Y142D02*
X376Y142D01*
X353Y141D02*
X376Y141D01*
X353Y140D02*
X376Y140D01*
X353Y139D02*
X376Y139D01*
X353Y138D02*
X376Y138D01*
X353Y137D02*
X376Y137D01*
X353Y136D02*
X376Y136D01*
X353Y135D02*
X376Y135D01*
X353Y134D02*
X376Y134D01*
X353Y133D02*
X376Y133D01*
X353Y132D02*
X376Y132D01*
X353Y131D02*
X376Y131D01*
X353Y130D02*
X376Y130D01*
X353Y129D02*
X376Y129D01*
X353Y128D02*
X376Y128D01*
X353Y127D02*
X376Y127D01*
X353Y126D02*
X376Y126D01*
X353Y125D02*
X376Y125D01*
X353Y124D02*
X376Y124D01*
X353Y123D02*
X376Y123D01*
X353Y122D02*
X376Y122D01*
X353Y121D02*
X376Y121D01*
X353Y120D02*
X376Y120D01*
X353Y119D02*
X376Y119D01*
X353Y118D02*
X376Y118D01*
X353Y117D02*
X376Y117D01*
X353Y116D02*
X376Y116D01*
X353Y115D02*
X376Y115D01*
X353Y114D02*
X376Y114D01*
X353Y113D02*
X376Y113D01*
X353Y112D02*
X376Y112D01*
X353Y111D02*
X376Y111D01*
X353Y110D02*
X376Y110D01*
X353Y109D02*
X376Y109D01*
X353Y108D02*
X376Y108D01*
X353Y107D02*
X376Y107D01*
X353Y106D02*
X376Y106D01*
X353Y105D02*
X376Y105D01*
X353Y104D02*
X376Y104D01*
X353Y103D02*
X376Y103D01*
X354Y102D02*
X376Y102D01*
X354Y101D02*
X376Y101D01*
X354Y100D02*
X375Y100D01*
X355Y99D02*
X375Y99D01*
X355Y98D02*
X375Y98D01*
X356Y97D02*
X374Y97D01*
X357Y96D02*
X373Y96D01*
X358Y95D02*
X372Y95D01*
X359Y94D02*
X371Y94D01*
X361Y93D02*
X368Y93D01*
D02*
G04 End of Copper0*
M02*