G04 MADE WITH FRITZING*
G04 WWW.FRITZING.ORG*
G04 DOUBLE SIDED*
G04 HOLES PLATED*
G04 CONTOUR ON CENTER OF CONTOUR VECTOR*
%ASAXBY*%
%FSLAX23Y23*%
%MOIN*%
%OFA0B0*%
%SFA1.0B1.0*%
%ADD10C,0.078000*%
%ADD11C,0.024000*%
%ADD12R,0.001000X0.001000*%
%LNCOPPER0*%
G90*
G70*
G54D10*
X81Y348D03*
X81Y448D03*
X189Y349D03*
X189Y449D03*
X298Y448D03*
X298Y348D03*
X81Y112D03*
X81Y212D03*
X189Y213D03*
X189Y113D03*
X298Y212D03*
X298Y112D03*
G54D11*
X81Y242D02*
X81Y318D01*
D02*
X189Y243D02*
X189Y319D01*
D02*
X267Y112D02*
X219Y113D01*
D02*
X159Y113D02*
X111Y112D01*
D02*
X360Y113D02*
X328Y112D01*
G54D12*
X324Y460D02*
X371Y460D01*
X321Y459D02*
X374Y459D01*
X320Y458D02*
X376Y458D01*
X319Y457D02*
X377Y457D01*
X318Y456D02*
X378Y456D01*
X317Y455D02*
X378Y455D01*
X317Y454D02*
X379Y454D01*
X316Y453D02*
X379Y453D01*
X316Y452D02*
X380Y452D01*
X315Y451D02*
X380Y451D01*
X315Y450D02*
X380Y450D01*
X315Y449D02*
X380Y449D01*
X315Y448D02*
X380Y448D01*
X315Y447D02*
X380Y447D01*
X315Y446D02*
X380Y446D01*
X316Y445D02*
X380Y445D01*
X316Y444D02*
X380Y444D01*
X317Y443D02*
X380Y443D01*
X317Y442D02*
X380Y442D01*
X318Y441D02*
X380Y441D01*
X319Y440D02*
X380Y440D01*
X320Y439D02*
X380Y439D01*
X322Y438D02*
X380Y438D01*
X324Y437D02*
X380Y437D01*
X357Y436D02*
X380Y436D01*
X357Y435D02*
X380Y435D01*
X357Y434D02*
X380Y434D01*
X357Y433D02*
X380Y433D01*
X357Y432D02*
X380Y432D01*
X357Y431D02*
X380Y431D01*
X357Y430D02*
X380Y430D01*
X357Y429D02*
X380Y429D01*
X357Y428D02*
X380Y428D01*
X357Y427D02*
X380Y427D01*
X357Y426D02*
X380Y426D01*
X357Y425D02*
X380Y425D01*
X357Y424D02*
X380Y424D01*
X357Y423D02*
X380Y423D01*
X357Y422D02*
X379Y422D01*
X356Y421D02*
X379Y421D01*
X356Y420D02*
X379Y420D01*
X356Y419D02*
X379Y419D01*
X356Y418D02*
X379Y418D01*
X356Y417D02*
X379Y417D01*
X356Y416D02*
X379Y416D01*
X356Y415D02*
X379Y415D01*
X356Y414D02*
X379Y414D01*
X356Y413D02*
X379Y413D01*
X356Y412D02*
X379Y412D01*
X356Y411D02*
X379Y411D01*
X356Y410D02*
X379Y410D01*
X356Y409D02*
X379Y409D01*
X356Y408D02*
X379Y408D01*
X356Y407D02*
X379Y407D01*
X356Y406D02*
X379Y406D01*
X356Y405D02*
X379Y405D01*
X356Y404D02*
X379Y404D01*
X356Y403D02*
X379Y403D01*
X356Y402D02*
X379Y402D01*
X356Y401D02*
X379Y401D01*
X356Y400D02*
X379Y400D01*
X356Y399D02*
X379Y399D01*
X356Y398D02*
X379Y398D01*
X356Y397D02*
X379Y397D01*
X356Y396D02*
X379Y396D01*
X356Y395D02*
X379Y395D01*
X356Y394D02*
X379Y394D01*
X356Y393D02*
X379Y393D01*
X356Y392D02*
X379Y392D01*
X356Y391D02*
X379Y391D01*
X356Y390D02*
X379Y390D01*
X356Y389D02*
X379Y389D01*
X355Y388D02*
X378Y388D01*
X355Y387D02*
X378Y387D01*
X355Y386D02*
X378Y386D01*
X355Y385D02*
X378Y385D01*
X355Y384D02*
X378Y384D01*
X355Y383D02*
X378Y383D01*
X355Y382D02*
X378Y382D01*
X355Y381D02*
X378Y381D01*
X355Y380D02*
X378Y380D01*
X355Y379D02*
X378Y379D01*
X355Y378D02*
X378Y378D01*
X355Y377D02*
X378Y377D01*
X355Y376D02*
X378Y376D01*
X355Y375D02*
X378Y375D01*
X355Y374D02*
X378Y374D01*
X355Y373D02*
X378Y373D01*
X355Y372D02*
X378Y372D01*
X355Y371D02*
X378Y371D01*
X355Y370D02*
X378Y370D01*
X355Y369D02*
X378Y369D01*
X355Y368D02*
X378Y368D01*
X355Y367D02*
X378Y367D01*
X355Y366D02*
X378Y366D01*
X355Y365D02*
X378Y365D01*
X355Y364D02*
X378Y364D01*
X355Y363D02*
X378Y363D01*
X355Y362D02*
X378Y362D01*
X355Y361D02*
X378Y361D01*
X355Y360D02*
X378Y360D01*
X355Y359D02*
X378Y359D01*
X355Y358D02*
X378Y358D01*
X355Y357D02*
X378Y357D01*
X355Y356D02*
X378Y356D01*
X355Y355D02*
X377Y355D01*
X354Y354D02*
X377Y354D01*
X354Y353D02*
X377Y353D01*
X354Y352D02*
X377Y352D01*
X354Y351D02*
X377Y351D01*
X354Y350D02*
X377Y350D01*
X354Y349D02*
X377Y349D01*
X354Y348D02*
X377Y348D01*
X354Y347D02*
X377Y347D01*
X354Y346D02*
X377Y346D01*
X354Y345D02*
X377Y345D01*
X354Y344D02*
X377Y344D01*
X354Y343D02*
X377Y343D01*
X354Y342D02*
X377Y342D01*
X354Y341D02*
X377Y341D01*
X354Y340D02*
X377Y340D01*
X354Y339D02*
X377Y339D01*
X354Y338D02*
X377Y338D01*
X354Y337D02*
X377Y337D01*
X354Y336D02*
X377Y336D01*
X354Y335D02*
X377Y335D01*
X354Y334D02*
X377Y334D01*
X354Y333D02*
X377Y333D01*
X354Y332D02*
X377Y332D01*
X354Y331D02*
X377Y331D01*
X354Y330D02*
X377Y330D01*
X354Y329D02*
X377Y329D01*
X354Y328D02*
X377Y328D01*
X354Y327D02*
X377Y327D01*
X354Y326D02*
X377Y326D01*
X354Y325D02*
X377Y325D01*
X354Y324D02*
X377Y324D01*
X354Y323D02*
X377Y323D01*
X354Y322D02*
X377Y322D01*
X353Y321D02*
X376Y321D01*
X353Y320D02*
X376Y320D01*
X353Y319D02*
X376Y319D01*
X353Y318D02*
X376Y318D01*
X353Y317D02*
X376Y317D01*
X353Y316D02*
X376Y316D01*
X353Y315D02*
X376Y315D01*
X353Y314D02*
X376Y314D01*
X353Y313D02*
X376Y313D01*
X353Y312D02*
X376Y312D01*
X353Y311D02*
X376Y311D01*
X353Y310D02*
X376Y310D01*
X353Y309D02*
X376Y309D01*
X353Y308D02*
X376Y308D01*
X353Y307D02*
X376Y307D01*
X353Y306D02*
X376Y306D01*
X353Y305D02*
X376Y305D01*
X353Y304D02*
X376Y304D01*
X353Y303D02*
X376Y303D01*
X353Y302D02*
X376Y302D01*
X353Y301D02*
X376Y301D01*
X353Y300D02*
X376Y300D01*
X353Y299D02*
X376Y299D01*
X353Y298D02*
X376Y298D01*
X353Y297D02*
X376Y297D01*
X353Y296D02*
X376Y296D01*
X353Y295D02*
X376Y295D01*
X353Y294D02*
X376Y294D01*
X353Y293D02*
X376Y293D01*
X353Y292D02*
X376Y292D01*
X353Y291D02*
X376Y291D01*
X353Y290D02*
X376Y290D01*
X353Y289D02*
X376Y289D01*
X353Y288D02*
X375Y288D01*
X352Y287D02*
X375Y287D01*
X352Y286D02*
X375Y286D01*
X352Y285D02*
X375Y285D01*
X352Y284D02*
X375Y284D01*
X352Y283D02*
X375Y283D01*
X352Y282D02*
X375Y282D01*
X352Y281D02*
X375Y281D01*
X352Y280D02*
X375Y280D01*
X352Y279D02*
X375Y279D01*
X352Y278D02*
X375Y278D01*
X352Y277D02*
X375Y277D01*
X352Y276D02*
X375Y276D01*
X352Y275D02*
X375Y275D01*
X352Y274D02*
X375Y274D01*
X352Y273D02*
X375Y273D01*
X352Y272D02*
X375Y272D01*
X352Y271D02*
X375Y271D01*
X352Y270D02*
X375Y270D01*
X352Y269D02*
X375Y269D01*
X352Y268D02*
X375Y268D01*
X352Y267D02*
X375Y267D01*
X352Y266D02*
X375Y266D01*
X352Y265D02*
X375Y265D01*
X352Y264D02*
X375Y264D01*
X352Y263D02*
X375Y263D01*
X352Y262D02*
X375Y262D01*
X352Y261D02*
X375Y261D01*
X352Y260D02*
X375Y260D01*
X352Y259D02*
X375Y259D01*
X352Y258D02*
X375Y258D01*
X352Y257D02*
X375Y257D01*
X352Y256D02*
X375Y256D01*
X352Y255D02*
X375Y255D01*
X352Y254D02*
X374Y254D01*
X351Y253D02*
X374Y253D01*
X351Y252D02*
X374Y252D01*
X351Y251D02*
X374Y251D01*
X351Y250D02*
X374Y250D01*
X351Y249D02*
X374Y249D01*
X351Y248D02*
X374Y248D01*
X351Y247D02*
X374Y247D01*
X351Y246D02*
X374Y246D01*
X351Y245D02*
X374Y245D01*
X351Y244D02*
X374Y244D01*
X351Y243D02*
X374Y243D01*
X351Y242D02*
X374Y242D01*
X351Y241D02*
X374Y241D01*
X351Y240D02*
X374Y240D01*
X351Y239D02*
X374Y239D01*
X351Y238D02*
X374Y238D01*
X351Y237D02*
X374Y237D01*
X351Y236D02*
X374Y236D01*
X351Y235D02*
X374Y235D01*
X351Y234D02*
X374Y234D01*
X351Y233D02*
X374Y233D01*
X351Y232D02*
X374Y232D01*
X351Y231D02*
X374Y231D01*
X351Y230D02*
X374Y230D01*
X351Y229D02*
X374Y229D01*
X351Y228D02*
X374Y228D01*
X351Y227D02*
X374Y227D01*
X351Y226D02*
X374Y226D01*
X351Y225D02*
X374Y225D01*
X351Y224D02*
X374Y224D01*
X351Y223D02*
X374Y223D01*
X351Y222D02*
X374Y222D01*
X351Y221D02*
X373Y221D01*
X350Y220D02*
X373Y220D01*
X350Y219D02*
X373Y219D01*
X350Y218D02*
X373Y218D01*
X350Y217D02*
X373Y217D01*
X350Y216D02*
X373Y216D01*
X350Y215D02*
X373Y215D01*
X350Y214D02*
X373Y214D01*
X350Y213D02*
X373Y213D01*
X350Y212D02*
X373Y212D01*
X350Y211D02*
X373Y211D01*
X350Y210D02*
X373Y210D01*
X350Y209D02*
X373Y209D01*
X350Y208D02*
X373Y208D01*
X350Y207D02*
X373Y207D01*
X350Y206D02*
X373Y206D01*
X350Y205D02*
X373Y205D01*
X350Y204D02*
X373Y204D01*
X350Y203D02*
X373Y203D01*
X350Y202D02*
X373Y202D01*
X350Y201D02*
X373Y201D01*
X350Y200D02*
X373Y200D01*
X350Y199D02*
X373Y199D01*
X350Y198D02*
X373Y198D01*
X350Y197D02*
X373Y197D01*
X350Y196D02*
X373Y196D01*
X350Y195D02*
X373Y195D01*
X350Y194D02*
X373Y194D01*
X350Y193D02*
X373Y193D01*
X350Y192D02*
X373Y192D01*
X350Y191D02*
X373Y191D01*
X350Y190D02*
X373Y190D01*
X350Y189D02*
X373Y189D01*
X350Y188D02*
X373Y188D01*
X350Y187D02*
X372Y187D01*
X349Y186D02*
X372Y186D01*
X349Y185D02*
X372Y185D01*
X349Y184D02*
X372Y184D01*
X349Y183D02*
X372Y183D01*
X349Y182D02*
X372Y182D01*
X349Y181D02*
X372Y181D01*
X349Y180D02*
X372Y180D01*
X349Y179D02*
X372Y179D01*
X349Y178D02*
X372Y178D01*
X349Y177D02*
X372Y177D01*
X349Y176D02*
X372Y176D01*
X349Y175D02*
X372Y175D01*
X349Y174D02*
X372Y174D01*
X349Y173D02*
X372Y173D01*
X349Y172D02*
X372Y172D01*
X349Y171D02*
X372Y171D01*
X349Y170D02*
X372Y170D01*
X349Y169D02*
X372Y169D01*
X349Y168D02*
X372Y168D01*
X349Y167D02*
X372Y167D01*
X349Y166D02*
X372Y166D01*
X349Y165D02*
X372Y165D01*
X349Y164D02*
X372Y164D01*
X349Y163D02*
X372Y163D01*
X349Y162D02*
X372Y162D01*
X349Y161D02*
X372Y161D01*
X349Y160D02*
X372Y160D01*
X349Y159D02*
X372Y159D01*
X349Y158D02*
X372Y158D01*
X349Y157D02*
X372Y157D01*
X349Y156D02*
X372Y156D01*
X349Y155D02*
X372Y155D01*
X349Y154D02*
X372Y154D01*
X348Y153D02*
X371Y153D01*
X348Y152D02*
X371Y152D01*
X348Y151D02*
X371Y151D01*
X348Y150D02*
X371Y150D01*
X348Y149D02*
X371Y149D01*
X348Y148D02*
X371Y148D01*
X348Y147D02*
X371Y147D01*
X348Y146D02*
X371Y146D01*
X348Y145D02*
X371Y145D01*
X348Y144D02*
X371Y144D01*
X348Y143D02*
X371Y143D01*
X348Y142D02*
X371Y142D01*
X348Y141D02*
X371Y141D01*
X348Y140D02*
X371Y140D01*
X348Y139D02*
X371Y139D01*
X348Y138D02*
X371Y138D01*
X348Y137D02*
X371Y137D01*
X348Y136D02*
X371Y136D01*
X348Y135D02*
X371Y135D01*
X348Y134D02*
X371Y134D01*
X348Y133D02*
X371Y133D01*
X348Y132D02*
X371Y132D01*
X348Y131D02*
X371Y131D01*
X348Y130D02*
X371Y130D01*
X348Y129D02*
X371Y129D01*
X348Y128D02*
X371Y128D01*
X348Y127D02*
X371Y127D01*
X348Y126D02*
X371Y126D01*
X348Y125D02*
X371Y125D01*
X348Y124D02*
X371Y124D01*
X348Y123D02*
X371Y123D01*
X348Y122D02*
X371Y122D01*
X348Y121D02*
X371Y121D01*
X348Y120D02*
X370Y120D01*
X347Y119D02*
X370Y119D01*
X347Y118D02*
X370Y118D01*
X347Y117D02*
X370Y117D01*
X347Y116D02*
X370Y116D01*
X347Y115D02*
X370Y115D01*
X347Y114D02*
X370Y114D01*
X347Y113D02*
X370Y113D01*
X348Y112D02*
X370Y112D01*
X348Y111D02*
X370Y111D01*
X348Y110D02*
X369Y110D01*
X349Y109D02*
X369Y109D01*
X349Y108D02*
X368Y108D01*
X350Y107D02*
X368Y107D01*
X351Y106D02*
X367Y106D01*
X352Y105D02*
X366Y105D01*
X354Y104D02*
X364Y104D01*
X356Y103D02*
X362Y103D01*
D02*
G04 End of Copper0*
M02*