solid Splitter_Lid
facet normal 0.0 0.0 -1.0
  outer loop
    vertex -1.9999999999999991 1.1547005383792655 0.0
    vertex -4.856406460551019 -23.588457268119896 0.0
    vertex -14.856406460551023 -6.26794919243111 0.0
  endloop
endfacet
facet normal 0.0 0.0 -1.0
  outer loop
    vertex -4.856406460551019 -23.588457268119896 0.0
    vertex -1.9999999999999991 1.1547005383792655 0.0
    vertex 7.9999999999999885 -16.165807537309536 0.0
  endloop
endfacet
facet normal 0.0 0.0 -1.0
  outer loop
    vertex 18.000000000000004 15.999999999999998 0.0
    vertex -1.9999999999999991 1.1547005383792655 0.0
    vertex -1.9999999999999991 15.999999999999998 0.0
  endloop
endfacet
facet normal 0.0 0.0 -1.0
  outer loop
    vertex -1.9999999999999991 1.1547005383792655 0.0
    vertex 18.000000000000004 15.999999999999998 0.0
    vertex 7.9999999999999885 -16.165807537309536 0.0
  endloop
endfacet
facet normal 0.0 0.0 -1.0
  outer loop
    vertex 7.9999999999999885 -16.165807537309536 0.0
    vertex 18.000000000000004 15.999999999999998 0.0
    vertex 17.999999999999996 1.1547005383792512 0.0
  endloop
endfacet
facet normal 0.0 0.0 -1.0
  outer loop
    vertex 17.999999999999996 1.1547005383792512 0.0
    vertex 20.856406460551018 -23.588457268119907 0.0
    vertex 7.9999999999999885 -16.165807537309536 0.0
  endloop
endfacet
facet normal 0.0 0.0 -1.0
  outer loop
    vertex 20.856406460551018 -23.588457268119907 0.0
    vertex 17.999999999999996 1.1547005383792512 0.0
    vertex 30.856406460551018 -6.267949192431118 0.0
  endloop
endfacet
facet normal -0.49999999999999967 -0.8660254037844388 -0.0
  outer loop
    vertex 20.856406460551018 -23.588457268119907 2.000000000000005
    vertex 7.9999999999999885 -16.165807537309536 0.0
    vertex 20.856406460551018 -23.588457268119907 0.0
  endloop
endfacet
facet normal -0.49999999999999967 -0.8660254037844388 -0.0
  outer loop
    vertex 7.9999999999999885 -16.165807537309536 0.0
    vertex 20.856406460551018 -23.588457268119907 2.000000000000005
    vertex 7.9999999999999885 -16.165807537309536 2.000000000000005
  endloop
endfacet
facet normal 0.4999999999999998 0.8660254037844388 0.0
  outer loop
    vertex 17.999999999999996 1.1547005383792512 2.000000000000005
    vertex 30.856406460551018 -6.267949192431118 0.0
    vertex 17.999999999999996 1.1547005383792512 0.0
  endloop
endfacet
facet normal 0.4999999999999998 0.8660254037844388 0.0
  outer loop
    vertex 30.856406460551018 -6.267949192431118 0.0
    vertex 17.999999999999996 1.1547005383792512 2.000000000000005
    vertex 30.856406460551018 -6.267949192431118 2.000000000000005
  endloop
endfacet
facet normal 1.0 -5.698705822347942e-16 0.0
  outer loop
    vertex 18.000000000000004 15.999999999999998 0.0
    vertex 17.999999999999996 1.1547005383792512 2.000000000000005
    vertex 17.999999999999996 1.1547005383792512 0.0
  endloop
endfacet
facet normal 1.0 -5.698705822347942e-16 0.0
  outer loop
    vertex 17.999999999999996 1.1547005383792512 2.000000000000005
    vertex 18.000000000000004 15.999999999999998 0.0
    vertex 18.000000000000004 15.999999999999998 2.000000000000005
  endloop
endfacet
facet normal 0.8660254037844389 -0.49999999999999983 1.2912218707425427e-15
  outer loop
    vertex 30.856406460551018 -6.267949192431118 0.0
    vertex 20.856406460551018 -23.588457268119907 2.000000000000005
    vertex 20.856406460551018 -23.588457268119907 0.0
  endloop
endfacet
facet normal 0.8660254037844389 -0.49999999999999983 1.2912218707425427e-15
  outer loop
    vertex 20.856406460551018 -23.588457268119907 2.000000000000005
    vertex 30.856406460551018 -6.267949192431118 0.0
    vertex 30.856406460551018 -6.267949192431118 2.000000000000005
  endloop
endfacet
facet normal -0.4999999999999999 0.8660254037844388 0.0
  outer loop
    vertex -14.856406460551023 -6.26794919243111 2.000000000000005
    vertex -1.9999999999999991 1.1547005383792655 0.0
    vertex -14.856406460551023 -6.26794919243111 0.0
  endloop
endfacet
facet normal -0.4999999999999999 0.8660254037844388 0.0
  outer loop
    vertex -1.9999999999999991 1.1547005383792655 0.0
    vertex -14.856406460551023 -6.26794919243111 2.000000000000005
    vertex -1.9999999999999991 1.1547005383792655 2.000000000000005
  endloop
endfacet
facet normal 1.7090705954835713e-16 1.0 -2.819966482547888e-15
  outer loop
    vertex -1.9999999999999991 15.999999999999998 2.000000000000005
    vertex 18.000000000000004 15.999999999999998 0.0
    vertex -1.9999999999999991 15.999999999999998 0.0
  endloop
endfacet
facet normal 1.7090705954835713e-16 1.0 -2.819966482547888e-15
  outer loop
    vertex 18.000000000000004 15.999999999999998 0.0
    vertex -1.9999999999999991 15.999999999999998 2.000000000000005
    vertex 18.000000000000004 15.999999999999998 2.000000000000005
  endloop
endfacet
facet normal -0.8660254037844389 -0.49999999999999983 -1.7070201384677691e-16
  outer loop
    vertex -14.856406460551023 -6.26794919243111 2.000000000000005
    vertex -4.856406460551019 -23.588457268119896 0.0
    vertex -4.856406460551019 -23.588457268119896 2.000000000000005
  endloop
endfacet
facet normal -0.8660254037844389 -0.49999999999999983 -1.7070201384677691e-16
  outer loop
    vertex -4.856406460551019 -23.588457268119896 0.0
    vertex -14.856406460551023 -6.26794919243111 2.000000000000005
    vertex -14.856406460551023 -6.26794919243111 0.0
  endloop
endfacet
facet normal -1.0 2.374460759311645e-17 0.0
  outer loop
    vertex -1.9999999999999991 15.999999999999998 2.000000000000005
    vertex -1.9999999999999991 1.1547005383792655 0.0
    vertex -1.9999999999999991 1.1547005383792655 2.000000000000005
  endloop
endfacet
facet normal -1.0 2.374460759311645e-17 0.0
  outer loop
    vertex -1.9999999999999991 1.1547005383792655 0.0
    vertex -1.9999999999999991 15.999999999999998 2.000000000000005
    vertex -1.9999999999999991 15.999999999999998 0.0
  endloop
endfacet
facet normal 0.4999999999999997 -0.8660254037844388 0.0
  outer loop
    vertex 7.9999999999999885 -16.165807537309536 2.000000000000005
    vertex -4.856406460551019 -23.588457268119896 0.0
    vertex 7.9999999999999885 -16.165807537309536 0.0
  endloop
endfacet
facet normal 0.4999999999999997 -0.8660254037844388 0.0
  outer loop
    vertex -4.856406460551019 -23.588457268119896 0.0
    vertex 7.9999999999999885 -16.165807537309536 2.000000000000005
    vertex -4.856406460551019 -23.588457268119896 2.000000000000005
  endloop
endfacet
facet normal -1.0 5.539219876433364e-16 4.299097207909204e-17
  outer loop
    vertex 8.459899447643692e-15 14.000000000000014 4.000000000000002
    vertex 0.0 0.0 1.9999999999999998
    vertex 0.0 0.0 3.9999999999999996
  endloop
endfacet
facet normal -1.0 5.539219876433364e-16 4.299097207909204e-17
  outer loop
    vertex 0.0 0.0 1.9999999999999998
    vertex 8.459899447643692e-15 14.000000000000014 4.000000000000002
    vertex 8.459899447643692e-15 14.000000000000014 2.0000000000000018
  endloop
endfacet
facet normal 0.49999999999999983 -0.8660254037844389 7.225144719313588e-18
  outer loop
    vertex 7.999999999999999 -13.856406460551025 3.9999999999999996
    vertex -4.124355652982142 -20.85640646055102 2.000000000000006
    vertex 7.999999999999999 -13.856406460551025 1.9999999999999998
  endloop
endfacet
facet normal 0.49999999999999983 -0.8660254037844389 7.225144719313588e-18
  outer loop
    vertex -4.124355652982142 -20.85640646055102 2.000000000000006
    vertex 7.999999999999999 -13.856406460551025 3.9999999999999996
    vertex -4.124355652982142 -20.85640646055102 4.000000000000006
  endloop
endfacet
facet normal 1.0 -4.0285235464969946e-16 -4.299097207909205e-17
  outer loop
    vertex 16.000000000000007 14.000000000000002 1.9999999999999991
    vertex 15.999999999999996 0.0 3.9999999999999996
    vertex 15.999999999999996 0.0 1.9999999999999998
  endloop
endfacet
facet normal 1.0 -4.0285235464969946e-16 -4.299097207909205e-17
  outer loop
    vertex 15.999999999999996 0.0 3.9999999999999996
    vertex 16.000000000000007 14.000000000000002 1.9999999999999991
    vertex 16.000000000000007 14.000000000000002 3.999999999999999
  endloop
endfacet
facet normal -0.5000000000000007 -0.8660254037844385 5.021611679840566e-17
  outer loop
    vertex 20.124355652982135 -20.85640646055103 3.999999999999997
    vertex 7.999999999999999 -13.856406460551025 1.9999999999999998
    vertex 20.124355652982135 -20.85640646055103 1.9999999999999973
  endloop
endfacet
facet normal -0.5000000000000007 -0.8660254037844385 5.021611679840566e-17
  outer loop
    vertex 7.999999999999999 -13.856406460551025 1.9999999999999998
    vertex 20.124355652982135 -20.85640646055103 3.999999999999997
    vertex 7.999999999999999 -13.856406460551025 3.9999999999999996
  endloop
endfacet
facet normal -0.4999999999999991 0.8660254037844392 -7.225144719313628e-18
  outer loop
    vertex -12.124355652982146 -6.999999999999988 3.9999999999999996
    vertex 0.0 0.0 1.9999999999999998
    vertex -12.124355652982146 -6.999999999999988 1.9999999999999998
  endloop
endfacet
facet normal -0.4999999999999991 0.8660254037844392 -7.225144719313628e-18
  outer loop
    vertex 0.0 0.0 1.9999999999999998
    vertex -12.124355652982146 -6.999999999999988 3.9999999999999996
    vertex 0.0 0.0 3.9999999999999996
  endloop
endfacet
facet normal -0.8660254037844387 -0.49999999999999983 5.3813137853804654e-17
  outer loop
    vertex -12.124355652982146 -6.999999999999988 3.9999999999999996
    vertex -4.124355652982142 -20.85640646055102 2.000000000000006
    vertex -4.124355652982142 -20.85640646055102 4.000000000000006
  endloop
endfacet
facet normal -0.8660254037844387 -0.49999999999999983 5.3813137853804654e-17
  outer loop
    vertex -4.124355652982142 -20.85640646055102 2.000000000000006
    vertex -12.124355652982146 -6.999999999999988 3.9999999999999996
    vertex -12.124355652982146 -6.999999999999988 1.9999999999999998
  endloop
endfacet
facet normal 0.8660254037844392 -0.49999999999999956 -2.0649410053957823e-17
  outer loop
    vertex 28.124355652982132 -6.999999999999998 2.0000000000000036
    vertex 20.124355652982135 -20.85640646055103 3.999999999999997
    vertex 20.124355652982135 -20.85640646055103 1.9999999999999973
  endloop
endfacet
facet normal 0.8660254037844392 -0.49999999999999956 -2.0649410053957823e-17
  outer loop
    vertex 20.124355652982135 -20.85640646055103 3.999999999999997
    vertex 28.124355652982132 -6.999999999999998 2.0000000000000036
    vertex 28.124355652982132 -6.999999999999998 4.0000000000000036
  endloop
endfacet
facet normal 0.5000000000000002 0.8660254037844387 -5.0216116798405645e-17
  outer loop
    vertex 15.999999999999996 0.0 3.9999999999999996
    vertex 28.124355652982132 -6.999999999999998 2.0000000000000036
    vertex 15.999999999999996 0.0 1.9999999999999998
  endloop
endfacet
facet normal 0.5000000000000002 0.8660254037844387 -5.0216116798405645e-17
  outer loop
    vertex 28.124355652982132 -6.999999999999998 2.0000000000000036
    vertex 15.999999999999996 0.0 3.9999999999999996
    vertex 28.124355652982132 -6.999999999999998 4.0000000000000036
  endloop
endfacet
facet normal 7.049916206369746e-16 1.0 -3.3163727799846905e-17
  outer loop
    vertex 8.459899447643692e-15 14.000000000000014 2.0000000000000018
    vertex 16.000000000000007 14.000000000000002 3.999999999999999
    vertex 16.000000000000007 14.000000000000002 1.9999999999999991
  endloop
endfacet
facet normal 7.049916206369746e-16 1.0 -3.3163727799846905e-17
  outer loop
    vertex 16.000000000000007 14.000000000000002 3.999999999999999
    vertex 8.459899447643692e-15 14.000000000000014 2.0000000000000018
    vertex 8.459899447643692e-15 14.000000000000014 4.000000000000002
  endloop
endfacet
facet normal 4.299097207909206e-17 3.3163727799846874e-17 1.0
  outer loop
    vertex 20.124355652982135 -20.85640646055103 3.999999999999997
    vertex 15.999999999999996 0.0 3.9999999999999996
    vertex 7.999999999999999 -13.856406460551025 3.9999999999999996
  endloop
endfacet
facet normal 4.299097207909206e-17 3.3163727799846874e-17 1.0
  outer loop
    vertex 15.999999999999996 0.0 3.9999999999999996
    vertex 20.124355652982135 -20.85640646055103 3.999999999999997
    vertex 28.124355652982132 -6.999999999999998 4.0000000000000036
  endloop
endfacet
facet normal 4.299097207909206e-17 3.3163727799846874e-17 1.0
  outer loop
    vertex -4.124355652982142 -20.85640646055102 4.000000000000006
    vertex 0.0 0.0 3.9999999999999996
    vertex -12.124355652982146 -6.999999999999988 3.9999999999999996
  endloop
endfacet
facet normal 4.299097207909206e-17 3.3163727799846874e-17 1.0
  outer loop
    vertex 0.0 0.0 3.9999999999999996
    vertex -4.124355652982142 -20.85640646055102 4.000000000000006
    vertex 7.999999999999999 -13.856406460551025 3.9999999999999996
  endloop
endfacet
facet normal 4.299097207909206e-17 3.3163727799846874e-17 1.0
  outer loop
    vertex 0.0 0.0 3.9999999999999996
    vertex 7.999999999999999 -13.856406460551025 3.9999999999999996
    vertex 8.459899447643692e-15 14.000000000000014 4.000000000000002
  endloop
endfacet
facet normal 4.299097207909206e-17 3.3163727799846874e-17 1.0
  outer loop
    vertex 8.459899447643692e-15 14.000000000000014 4.000000000000002
    vertex 7.999999999999999 -13.856406460551025 3.9999999999999996
    vertex 16.000000000000007 14.000000000000002 3.999999999999999
  endloop
endfacet
facet normal 4.299097207909206e-17 3.3163727799846874e-17 1.0
  outer loop
    vertex 16.000000000000007 14.000000000000002 3.999999999999999
    vertex 7.999999999999999 -13.856406460551025 3.9999999999999996
    vertex 15.999999999999996 0.0 3.9999999999999996
  endloop
endfacet
facet normal 1.529484158375148e-17 2.2726897434205398e-17 1.0
  outer loop
    vertex -4.856406460551019 -23.588457268119896 2.000000000000005
    vertex -12.124355652982146 -6.999999999999988 1.9999999999999998
    vertex -14.856406460551023 -6.26794919243111 2.000000000000005
  endloop
endfacet
facet normal 1.529484158375148e-17 2.2726897434205398e-17 1.0
  outer loop
    vertex -12.124355652982146 -6.999999999999988 1.9999999999999998
    vertex -4.856406460551019 -23.588457268119896 2.000000000000005
    vertex -4.124355652982142 -20.85640646055102 2.000000000000006
  endloop
endfacet
facet normal 1.529484158375148e-17 2.2726897434205398e-17 1.0
  outer loop
    vertex -4.124355652982142 -20.85640646055102 2.000000000000006
    vertex -4.856406460551019 -23.588457268119896 2.000000000000005
    vertex 7.9999999999999885 -16.165807537309536 2.000000000000005
  endloop
endfacet
facet normal 1.529484158375148e-17 2.2726897434205398e-17 1.0
  outer loop
    vertex -4.124355652982142 -20.85640646055102 2.000000000000006
    vertex 7.9999999999999885 -16.165807537309536 2.000000000000005
    vertex 7.999999999999999 -13.856406460551025 1.9999999999999998
  endloop
endfacet
facet normal 1.529484158375148e-17 2.2726897434205398e-17 1.0
  outer loop
    vertex 7.999999999999999 -13.856406460551025 1.9999999999999998
    vertex 7.9999999999999885 -16.165807537309536 2.000000000000005
    vertex 20.856406460551018 -23.588457268119907 2.000000000000005
  endloop
endfacet
facet normal 1.529484158375148e-17 2.2726897434205398e-17 1.0
  outer loop
    vertex 7.999999999999999 -13.856406460551025 1.9999999999999998
    vertex 20.856406460551018 -23.588457268119907 2.000000000000005
    vertex 20.124355652982135 -20.85640646055103 1.9999999999999973
  endloop
endfacet
facet normal 1.529484158375148e-17 2.2726897434205398e-17 1.0
  outer loop
    vertex 20.124355652982135 -20.85640646055103 1.9999999999999973
    vertex 20.856406460551018 -23.588457268119907 2.000000000000005
    vertex 28.124355652982132 -6.999999999999998 2.0000000000000036
  endloop
endfacet
facet normal 1.529484158375148e-17 2.2726897434205398e-17 1.0
  outer loop
    vertex 28.124355652982132 -6.999999999999998 2.0000000000000036
    vertex 20.856406460551018 -23.588457268119907 2.000000000000005
    vertex 30.856406460551018 -6.267949192431118 2.000000000000005
  endloop
endfacet
facet normal 1.529484158375148e-17 2.2726897434205398e-17 1.0
  outer loop
    vertex 15.999999999999996 0.0 1.9999999999999998
    vertex 17.999999999999996 1.1547005383792512 2.000000000000005
    vertex 16.000000000000007 14.000000000000002 1.9999999999999991
  endloop
endfacet
facet normal 1.529484158375148e-17 2.2726897434205398e-17 1.0
  outer loop
    vertex 17.999999999999996 1.1547005383792512 2.000000000000005
    vertex 15.999999999999996 0.0 1.9999999999999998
    vertex 28.124355652982132 -6.999999999999998 2.0000000000000036
  endloop
endfacet
facet normal 1.529484158375148e-17 2.2726897434205398e-17 1.0
  outer loop
    vertex 17.999999999999996 1.1547005383792512 2.000000000000005
    vertex 28.124355652982132 -6.999999999999998 2.0000000000000036
    vertex 30.856406460551018 -6.267949192431118 2.000000000000005
  endloop
endfacet
facet normal 1.529484158375148e-17 2.2726897434205398e-17 1.0
  outer loop
    vertex -12.124355652982146 -6.999999999999988 1.9999999999999998
    vertex -1.9999999999999991 1.1547005383792655 2.000000000000005
    vertex -14.856406460551023 -6.26794919243111 2.000000000000005
  endloop
endfacet
facet normal 1.529484158375148e-17 2.2726897434205398e-17 1.0
  outer loop
    vertex -1.9999999999999991 1.1547005383792655 2.000000000000005
    vertex -12.124355652982146 -6.999999999999988 1.9999999999999998
    vertex 0.0 0.0 1.9999999999999998
  endloop
endfacet
facet normal 1.529484158375148e-17 2.2726897434205398e-17 1.0
  outer loop
    vertex -1.9999999999999991 1.1547005383792655 2.000000000000005
    vertex 0.0 0.0 1.9999999999999998
    vertex -1.9999999999999991 15.999999999999998 2.000000000000005
  endloop
endfacet
facet normal 1.529484158375148e-17 2.2726897434205398e-17 1.0
  outer loop
    vertex -1.9999999999999991 15.999999999999998 2.000000000000005
    vertex 0.0 0.0 1.9999999999999998
    vertex 8.459899447643692e-15 14.000000000000014 2.0000000000000018
  endloop
endfacet
facet normal 1.529484158375148e-17 2.2726897434205398e-17 1.0
  outer loop
    vertex -1.9999999999999991 15.999999999999998 2.000000000000005
    vertex 8.459899447643692e-15 14.000000000000014 2.0000000000000018
    vertex 18.000000000000004 15.999999999999998 2.000000000000005
  endloop
endfacet
facet normal 1.529484158375148e-17 2.2726897434205398e-17 1.0
  outer loop
    vertex 18.000000000000004 15.999999999999998 2.000000000000005
    vertex 8.459899447643692e-15 14.000000000000014 2.0000000000000018
    vertex 16.000000000000007 14.000000000000002 1.9999999999999991
  endloop
endfacet
facet normal 1.529484158375148e-17 2.2726897434205398e-17 1.0
  outer loop
    vertex 18.000000000000004 15.999999999999998 2.000000000000005
    vertex 16.000000000000007 14.000000000000002 1.9999999999999991
    vertex 17.999999999999996 1.1547005383792512 2.000000000000005
  endloop
endfacet
endsolid Splitter_Lid
