solid Splitter
facet normal 0.0 0.0 -1.0
  outer loop
    vertex -1.9999999999999991 15.999999999999998 0.0
    vertex 5.834936490538905 -3.36880215351703 0.0
    vertex 5.8349364905389045 -5.86880215351703 0.0
  endloop
endfacet
facet normal 0.0 0.0 -1.0
  outer loop
    vertex 5.834936490538905 -3.36880215351703 0.0
    vertex -1.9999999999999991 15.999999999999998 0.0
    vertex 18.000000000000007 15.999999999999998 0.0
  endloop
endfacet
facet normal 0.0 0.0 -1.0
  outer loop
    vertex 5.834936490538905 -3.36880215351703 0.0
    vertex 18.000000000000007 15.999999999999998 0.0
    vertex 8.000000000000002 -2.1188021535170307 0.0
  endloop
endfacet
facet normal 0.0 0.0 -1.0
  outer loop
    vertex 8.000000000000002 -2.1188021535170307 0.0
    vertex 18.000000000000007 15.999999999999998 0.0
    vertex 10.1650635094611 -3.3688021535170316 0.0
  endloop
endfacet
facet normal 0.0 0.0 -1.0
  outer loop
    vertex 10.1650635094611 -3.3688021535170316 0.0
    vertex 18.000000000000007 15.999999999999998 0.0
    vertex 17.999999999999996 1.1547005383792512 0.0
  endloop
endfacet
facet normal 0.0 0.0 -1.0
  outer loop
    vertex -1.9999999999999996 1.154700538379264 0.0
    vertex -4.856406460551019 -23.588457268119896 0.0
    vertex -14.856406460551023 -6.26794919243111 0.0
  endloop
endfacet
facet normal 0.0 0.0 -1.0
  outer loop
    vertex -4.856406460551019 -23.588457268119896 0.0
    vertex -1.9999999999999996 1.154700538379264 0.0
    vertex 7.9999999999999885 -16.165807537309536 0.0
  endloop
endfacet
facet normal 0.0 0.0 -1.0
  outer loop
    vertex 7.9999999999999885 -16.165807537309536 0.0
    vertex -1.9999999999999996 1.154700538379264 0.0
    vertex -1.9999999999999991 15.999999999999998 0.0
  endloop
endfacet
facet normal 0.0 0.0 -1.0
  outer loop
    vertex 7.9999999999999885 -16.165807537309536 0.0
    vertex -1.9999999999999991 15.999999999999998 0.0
    vertex 5.8349364905389045 -5.86880215351703 0.0
  endloop
endfacet
facet normal 0.0 0.0 -1.0
  outer loop
    vertex 7.9999999999999885 -16.165807537309536 0.0
    vertex 5.8349364905389045 -5.86880215351703 0.0
    vertex 8.000000000000002 -7.118802153517032 0.0
  endloop
endfacet
facet normal 0.0 0.0 -1.0
  outer loop
    vertex 7.9999999999999885 -16.165807537309536 0.0
    vertex 8.000000000000002 -7.118802153517032 0.0
    vertex 20.856406460551014 -23.588457268119907 0.0
  endloop
endfacet
facet normal 0.0 0.0 -1.0
  outer loop
    vertex 20.856406460551014 -23.588457268119907 0.0
    vertex 8.000000000000002 -7.118802153517032 0.0
    vertex 10.165063509461099 -5.868802153517032 0.0
  endloop
endfacet
facet normal 0.0 0.0 -1.0
  outer loop
    vertex 20.856406460551014 -23.588457268119907 0.0
    vertex 10.165063509461099 -5.868802153517032 0.0
    vertex 10.1650635094611 -3.3688021535170316 0.0
  endloop
endfacet
facet normal 0.0 0.0 -1.0
  outer loop
    vertex 20.856406460551014 -23.588457268119907 0.0
    vertex 10.1650635094611 -3.3688021535170316 0.0
    vertex 17.999999999999996 1.1547005383792512 0.0
  endloop
endfacet
facet normal 0.0 0.0 -1.0
  outer loop
    vertex 20.856406460551014 -23.588457268119907 0.0
    vertex 17.999999999999996 1.1547005383792512 0.0
    vertex 30.856406460551018 -6.26794919243112 0.0
  endloop
endfacet
facet normal 3.7884418550576855e-17 -3.51966674515727e-17 1.0
  outer loop
    vertex -5.856406460551018 -21.856406460551018 2.0
    vertex 0.0 0.0 1.9999999999999998
    vertex -13.856406460551025 -7.999999999999985 1.9999999999999998
  endloop
endfacet
facet normal 3.7884418550576855e-17 -3.51966674515727e-17 1.0
  outer loop
    vertex 0.0 0.0 1.9999999999999998
    vertex -5.856406460551018 -21.856406460551018 2.0
    vertex 7.999999999999999 -13.856406460551025 1.9999999999999998
  endloop
endfacet
facet normal 3.7884418550576855e-17 -3.51966674515727e-17 1.0
  outer loop
    vertex 0.0 0.0 1.9999999999999998
    vertex 7.999999999999999 -13.856406460551025 1.9999999999999998
    vertex 8.459899447643692e-15 16.000000000000007 1.9999999999999996
  endloop
endfacet
facet normal 3.7884418550576855e-17 -3.51966674515727e-17 1.0
  outer loop
    vertex 8.459899447643692e-15 16.000000000000007 1.9999999999999996
    vertex 7.999999999999999 -13.856406460551025 1.9999999999999998
    vertex 6.5511112605664 -5.007030721170812 1.9999999999999998
  endloop
endfacet
facet normal 3.7884418550576855e-17 -3.51966674515727e-17 1.0
  outer loop
    vertex 8.459899447643692e-15 16.000000000000007 1.9999999999999996
    vertex 6.5511112605664 -5.007030721170812 1.9999999999999998
    vertex 6.500000000000002 -4.618802153517032 1.9999999999999998
  endloop
endfacet
facet normal 3.7884418550576855e-17 -3.51966674515727e-17 1.0
  outer loop
    vertex 6.5511112605664 -5.007030721170812 1.9999999999999998
    vertex 7.999999999999999 -13.856406460551025 1.9999999999999998
    vertex 6.700961894323344 -5.368802153517032 1.9999999999999998
  endloop
endfacet
facet normal 3.7884418550576855e-17 -3.51966674515727e-17 1.0
  outer loop
    vertex 6.700961894323344 -5.368802153517032 1.9999999999999998
    vertex 7.999999999999999 -13.856406460551025 1.9999999999999998
    vertex 6.939339828220181 -5.6794623252968535 1.9999999999999998
  endloop
endfacet
facet normal 3.7884418550576855e-17 -3.51966674515727e-17 1.0
  outer loop
    vertex 6.939339828220181 -5.6794623252968535 1.9999999999999998
    vertex 7.999999999999999 -13.856406460551025 1.9999999999999998
    vertex 7.250000000000003 -5.91784025919369 1.9999999999999998
  endloop
endfacet
facet normal 3.7884418550576855e-17 -3.51966674515727e-17 1.0
  outer loop
    vertex 7.250000000000003 -5.91784025919369 1.9999999999999998
    vertex 7.999999999999999 -13.856406460551025 1.9999999999999998
    vertex 7.611771432346221 -6.067690892950634 1.9999999999999998
  endloop
endfacet
facet normal 3.7884418550576855e-17 -3.51966674515727e-17 1.0
  outer loop
    vertex 7.611771432346221 -6.067690892950634 1.9999999999999998
    vertex 7.999999999999999 -13.856406460551025 1.9999999999999998
    vertex 8.000000000000002 -6.118802153517032 1.9999999999999998
  endloop
endfacet
facet normal 3.7884418550576855e-17 -3.51966674515727e-17 1.0
  outer loop
    vertex 8.000000000000002 -6.118802153517032 1.9999999999999998
    vertex 7.999999999999999 -13.856406460551025 1.9999999999999998
    vertex 21.85640646055101 -21.856406460551028 1.999999999999993
  endloop
endfacet
facet normal 3.7884418550576855e-17 -3.51966674515727e-17 1.0
  outer loop
    vertex 8.000000000000002 -6.118802153517032 1.9999999999999998
    vertex 21.85640646055101 -21.856406460551028 1.999999999999993
    vertex 8.388228567653783 -6.067690892950633 1.9999999999999998
  endloop
endfacet
facet normal 3.7884418550576855e-17 -3.51966674515727e-17 1.0
  outer loop
    vertex 8.388228567653783 -6.067690892950633 1.9999999999999998
    vertex 21.85640646055101 -21.856406460551028 1.999999999999993
    vertex 8.750000000000002 -5.91784025919369 1.9999999999999998
  endloop
endfacet
facet normal 3.7884418550576855e-17 -3.51966674515727e-17 1.0
  outer loop
    vertex 8.750000000000002 -5.91784025919369 1.9999999999999998
    vertex 21.85640646055101 -21.856406460551028 1.999999999999993
    vertex 9.060660171779823 -5.6794623252968535 1.9999999999999998
  endloop
endfacet
facet normal 3.7884418550576855e-17 -3.51966674515727e-17 1.0
  outer loop
    vertex 9.060660171779823 -5.6794623252968535 1.9999999999999998
    vertex 21.85640646055101 -21.856406460551028 1.999999999999993
    vertex 9.299038105676662 -5.368802153517031 1.9999999999999998
  endloop
endfacet
facet normal 3.7884418550576855e-17 -3.51966674515727e-17 1.0
  outer loop
    vertex 9.299038105676662 -5.368802153517031 1.9999999999999998
    vertex 21.85640646055101 -21.856406460551028 1.999999999999993
    vertex 9.448888739433604 -5.007030721170811 1.9999999999999998
  endloop
endfacet
facet normal 3.7884418550576855e-17 -3.51966674515727e-17 1.0
  outer loop
    vertex 9.448888739433604 -5.007030721170811 1.9999999999999998
    vertex 21.85640646055101 -21.856406460551028 1.999999999999993
    vertex 9.500000000000002 -4.618802153517031 1.9999999999999998
  endloop
endfacet
facet normal 3.7884418550576855e-17 -3.51966674515727e-17 1.0
  outer loop
    vertex 9.500000000000002 -4.618802153517031 1.9999999999999998
    vertex 21.85640646055101 -21.856406460551028 1.999999999999993
    vertex 15.999999999999998 0.0 1.9999999999999998
  endloop
endfacet
facet normal 3.7884418550576855e-17 -3.51966674515727e-17 1.0
  outer loop
    vertex 15.999999999999998 0.0 1.9999999999999998
    vertex 21.85640646055101 -21.856406460551028 1.999999999999993
    vertex 29.85640646055102 -7.9999999999999964 2.0
  endloop
endfacet
facet normal 3.7884418550576855e-17 -3.51966674515727e-17 1.0
  outer loop
    vertex 8.459899447643692e-15 16.000000000000007 1.9999999999999996
    vertex 6.700961894323344 -3.868802153517032 1.9999999999999998
    vertex 16.000000000000007 16.000000000000004 1.9999999999999991
  endloop
endfacet
facet normal 3.7884418550576855e-17 -3.51966674515727e-17 1.0
  outer loop
    vertex 6.700961894323344 -3.868802153517032 1.9999999999999998
    vertex 8.459899447643692e-15 16.000000000000007 1.9999999999999996
    vertex 6.5511112605664 -4.230573585863251 1.9999999999999998
  endloop
endfacet
facet normal 3.7884418550576855e-17 -3.51966674515727e-17 1.0
  outer loop
    vertex 6.5511112605664 -4.230573585863251 1.9999999999999998
    vertex 8.459899447643692e-15 16.000000000000007 1.9999999999999996
    vertex 6.500000000000002 -4.618802153517032 1.9999999999999998
  endloop
endfacet
facet normal 3.7884418550576855e-17 -3.51966674515727e-17 1.0
  outer loop
    vertex 16.000000000000007 16.000000000000004 1.9999999999999991
    vertex 6.700961894323344 -3.868802153517032 1.9999999999999998
    vertex 6.939339828220181 -3.55814198173721 1.9999999999999998
  endloop
endfacet
facet normal 3.7884418550576855e-17 -3.51966674515727e-17 1.0
  outer loop
    vertex 16.000000000000007 16.000000000000004 1.9999999999999991
    vertex 6.939339828220181 -3.55814198173721 1.9999999999999998
    vertex 7.250000000000003 -3.319764047840373 1.9999999999999998
  endloop
endfacet
facet normal 3.7884418550576855e-17 -3.51966674515727e-17 1.0
  outer loop
    vertex 16.000000000000007 16.000000000000004 1.9999999999999991
    vertex 7.250000000000003 -3.319764047840373 1.9999999999999998
    vertex 7.611771432346221 -3.1699134140834286 1.9999999999999998
  endloop
endfacet
facet normal 3.7884418550576855e-17 -3.51966674515727e-17 1.0
  outer loop
    vertex 16.000000000000007 16.000000000000004 1.9999999999999991
    vertex 7.611771432346221 -3.1699134140834286 1.9999999999999998
    vertex 8.000000000000002 -3.1188021535170307 1.9999999999999998
  endloop
endfacet
facet normal 3.7884418550576855e-17 -3.51966674515727e-17 1.0
  outer loop
    vertex 16.000000000000007 16.000000000000004 1.9999999999999991
    vertex 8.000000000000002 -3.1188021535170307 1.9999999999999998
    vertex 8.388228567653783 -3.169913414083428 1.9999999999999998
  endloop
endfacet
facet normal 3.7884418550576855e-17 -3.51966674515727e-17 1.0
  outer loop
    vertex 16.000000000000007 16.000000000000004 1.9999999999999991
    vertex 8.388228567653783 -3.169913414083428 1.9999999999999998
    vertex 8.750000000000002 -3.3197640478403723 1.9999999999999998
  endloop
endfacet
facet normal 3.7884418550576855e-17 -3.51966674515727e-17 1.0
  outer loop
    vertex 16.000000000000007 16.000000000000004 1.9999999999999991
    vertex 8.750000000000002 -3.3197640478403723 1.9999999999999998
    vertex 9.060660171779823 -3.5581419817372093 1.9999999999999998
  endloop
endfacet
facet normal 3.7884418550576855e-17 -3.51966674515727e-17 1.0
  outer loop
    vertex 16.000000000000007 16.000000000000004 1.9999999999999991
    vertex 9.060660171779823 -3.5581419817372093 1.9999999999999998
    vertex 9.299038105676662 -3.8688021535170303 1.9999999999999998
  endloop
endfacet
facet normal 3.7884418550576855e-17 -3.51966674515727e-17 1.0
  outer loop
    vertex 16.000000000000007 16.000000000000004 1.9999999999999991
    vertex 9.299038105676662 -3.8688021535170303 1.9999999999999998
    vertex 9.448888739433604 -4.230573585863249 1.9999999999999998
  endloop
endfacet
facet normal 3.7884418550576855e-17 -3.51966674515727e-17 1.0
  outer loop
    vertex 16.000000000000007 16.000000000000004 1.9999999999999991
    vertex 9.448888739433604 -4.230573585863249 1.9999999999999998
    vertex 9.500000000000002 -4.618802153517031 1.9999999999999998
  endloop
endfacet
facet normal 3.7884418550576855e-17 -3.51966674515727e-17 1.0
  outer loop
    vertex 16.000000000000007 16.000000000000004 1.9999999999999991
    vertex 9.500000000000002 -4.618802153517031 1.9999999999999998
    vertex 15.999999999999998 0.0 1.9999999999999998
  endloop
endfacet
facet normal 0.8660254037844389 -0.4999999999999999 0.0
  outer loop
    vertex 20.856406460551014 -23.588457268119907 0.0
    vertex 21.85640646055101 -21.856406460551028 1.999999999999993
    vertex 20.856406460551014 -23.588457268119907 17.1
  endloop
endfacet
facet normal 0.8660254037844389 -0.4999999999999999 0.0
  outer loop
    vertex 21.85640646055101 -21.856406460551028 1.999999999999993
    vertex 20.856406460551014 -23.588457268119907 0.0
    vertex 30.856406460551018 -6.26794919243112 0.0
  endloop
endfacet
facet normal 0.8660254037844389 -0.4999999999999999 0.0
  outer loop
    vertex 21.85640646055101 -21.856406460551028 1.999999999999993
    vertex 30.856406460551018 -6.26794919243112 0.0
    vertex 29.85640646055102 -7.9999999999999964 2.0
  endloop
endfacet
facet normal 0.8660254037844389 -0.4999999999999999 0.0
  outer loop
    vertex 29.85640646055102 -7.9999999999999964 2.0
    vertex 30.856406460551018 -6.26794919243112 0.0
    vertex 29.85640646055101 -7.9999999999999964 14.0
  endloop
endfacet
facet normal 0.8660254037844389 -0.4999999999999999 0.0
  outer loop
    vertex 20.856406460551014 -23.588457268119907 17.1
    vertex 21.85640646055101 -21.856406460551028 14.0
    vertex 30.856406460551018 -6.26794919243112 17.1
  endloop
endfacet
facet normal 0.8660254037844389 -0.4999999999999999 0.0
  outer loop
    vertex 21.85640646055101 -21.856406460551028 14.0
    vertex 20.856406460551014 -23.588457268119907 17.1
    vertex 21.85640646055101 -21.856406460551028 1.999999999999993
  endloop
endfacet
facet normal 0.8660254037844389 -0.4999999999999999 0.0
  outer loop
    vertex 30.856406460551018 -6.26794919243112 17.1
    vertex 21.85640646055101 -21.856406460551028 14.0
    vertex 29.85640646055101 -7.9999999999999964 14.0
  endloop
endfacet
facet normal 0.8660254037844389 -0.4999999999999999 0.0
  outer loop
    vertex 30.856406460551018 -6.26794919243112 17.1
    vertex 29.85640646055101 -7.9999999999999964 14.0
    vertex 30.856406460551018 -6.26794919243112 0.0
  endloop
endfacet
facet normal -0.49999999999999967 -0.8660254037844388 -0.0
  outer loop
    vertex 20.856406460551014 -23.588457268119907 17.1
    vertex 7.9999999999999885 -16.165807537309536 0.0
    vertex 20.856406460551014 -23.588457268119907 0.0
  endloop
endfacet
facet normal -0.49999999999999967 -0.8660254037844388 -0.0
  outer loop
    vertex 7.9999999999999885 -16.165807537309536 0.0
    vertex 20.856406460551014 -23.588457268119907 17.1
    vertex 7.9999999999999885 -16.165807537309536 17.1
  endloop
endfacet
facet normal -0.8660254037844388 -0.49999999999999983 -0.0
  outer loop
    vertex -4.856406460551019 -23.588457268119896 17.1
    vertex -5.856406460551019 -21.856406460551018 14.0
    vertex -4.856406460551019 -23.588457268119896 0.0
  endloop
endfacet
facet normal -0.8660254037844388 -0.49999999999999983 -0.0
  outer loop
    vertex -5.856406460551019 -21.856406460551018 14.0
    vertex -4.856406460551019 -23.588457268119896 17.1
    vertex -14.856406460551023 -6.26794919243111 17.1
  endloop
endfacet
facet normal -0.8660254037844388 -0.49999999999999983 -0.0
  outer loop
    vertex -5.856406460551019 -21.856406460551018 14.0
    vertex -14.856406460551023 -6.26794919243111 17.1
    vertex -13.856406460551025 -7.9999999999999885 14.0
  endloop
endfacet
facet normal -0.8660254037844388 -0.49999999999999983 -0.0
  outer loop
    vertex -13.856406460551025 -7.9999999999999885 14.0
    vertex -14.856406460551023 -6.26794919243111 17.1
    vertex -13.856406460551025 -7.999999999999985 1.9999999999999998
  endloop
endfacet
facet normal -0.8660254037844388 -0.49999999999999983 -0.0
  outer loop
    vertex -4.856406460551019 -23.588457268119896 0.0
    vertex -5.856406460551018 -21.856406460551018 2.0
    vertex -14.856406460551023 -6.26794919243111 0.0
  endloop
endfacet
facet normal -0.8660254037844388 -0.49999999999999983 -0.0
  outer loop
    vertex -5.856406460551018 -21.856406460551018 2.0
    vertex -4.856406460551019 -23.588457268119896 0.0
    vertex -5.856406460551019 -21.856406460551018 14.0
  endloop
endfacet
facet normal -0.8660254037844388 -0.49999999999999983 -0.0
  outer loop
    vertex -14.856406460551023 -6.26794919243111 0.0
    vertex -5.856406460551018 -21.856406460551018 2.0
    vertex -13.856406460551025 -7.999999999999985 1.9999999999999998
  endloop
endfacet
facet normal -0.8660254037844388 -0.49999999999999983 -0.0
  outer loop
    vertex -14.856406460551023 -6.26794919243111 0.0
    vertex -13.856406460551025 -7.999999999999985 1.9999999999999998
    vertex -14.856406460551023 -6.26794919243111 17.1
  endloop
endfacet
facet normal -0.4999999999999999 0.8660254037844388 0.0
  outer loop
    vertex -14.856406460551023 -6.26794919243111 17.1
    vertex -1.9999999999999996 1.154700538379264 0.0
    vertex -14.856406460551023 -6.26794919243111 0.0
  endloop
endfacet
facet normal -0.4999999999999999 0.8660254037844388 0.0
  outer loop
    vertex -1.9999999999999996 1.154700538379264 0.0
    vertex -14.856406460551023 -6.26794919243111 17.1
    vertex -1.9999999999999996 1.154700538379264 17.1
  endloop
endfacet
facet normal -1.0 2.374460759311645e-17 0.0
  outer loop
    vertex -1.9999999999999991 15.999999999999998 17.1
    vertex -1.9999999999999996 1.154700538379264 0.0
    vertex -1.9999999999999996 1.154700538379264 17.1
  endloop
endfacet
facet normal -1.0 2.374460759311645e-17 0.0
  outer loop
    vertex -1.9999999999999996 1.154700538379264 0.0
    vertex -1.9999999999999991 15.999999999999998 17.1
    vertex -1.9999999999999991 15.999999999999998 0.0
  endloop
endfacet
facet normal 0.0 1.0 0.0
  outer loop
    vertex -1.9999999999999991 15.999999999999998 0.0
    vertex 8.459899447643692e-15 16.000000000000007 1.9999999999999996
    vertex 18.000000000000007 15.999999999999998 0.0
  endloop
endfacet
facet normal 0.0 1.0 0.0
  outer loop
    vertex 8.459899447643692e-15 16.000000000000007 1.9999999999999996
    vertex -1.9999999999999991 15.999999999999998 0.0
    vertex -1.9999999999999991 15.999999999999998 17.1
  endloop
endfacet
facet normal 0.0 1.0 0.0
  outer loop
    vertex 18.000000000000007 15.999999999999998 0.0
    vertex 8.459899447643692e-15 16.000000000000007 1.9999999999999996
    vertex 16.000000000000007 16.000000000000004 1.9999999999999991
  endloop
endfacet
facet normal 0.0 1.0 0.0
  outer loop
    vertex 8.459899447643692e-15 16.000000000000007 1.9999999999999996
    vertex -1.9999999999999991 15.999999999999998 17.1
    vertex 8.459899447643692e-15 16.000000000000014 14.0
  endloop
endfacet
facet normal 0.0 1.0 0.0
  outer loop
    vertex 8.459899447643692e-15 16.000000000000014 14.0
    vertex -1.9999999999999991 15.999999999999998 17.1
    vertex 16.000000000000007 16.000000000000007 14.0
  endloop
endfacet
facet normal 0.0 1.0 0.0
  outer loop
    vertex 16.000000000000007 16.000000000000004 1.9999999999999991
    vertex 18.000000000000007 15.999999999999998 17.1
    vertex 18.000000000000007 15.999999999999998 0.0
  endloop
endfacet
facet normal 0.0 1.0 0.0
  outer loop
    vertex 18.000000000000007 15.999999999999998 17.1
    vertex 16.000000000000007 16.000000000000004 1.9999999999999991
    vertex 16.000000000000007 16.000000000000007 14.0
  endloop
endfacet
facet normal 0.0 1.0 0.0
  outer loop
    vertex 18.000000000000007 15.999999999999998 17.1
    vertex 16.000000000000007 16.000000000000007 14.0
    vertex -1.9999999999999991 15.999999999999998 17.1
  endloop
endfacet
facet normal 1.0 -5.698705822347942e-16 0.0
  outer loop
    vertex 18.000000000000007 15.999999999999998 0.0
    vertex 17.999999999999996 1.1547005383792512 17.1
    vertex 17.999999999999996 1.1547005383792512 0.0
  endloop
endfacet
facet normal 1.0 -5.698705822347942e-16 0.0
  outer loop
    vertex 17.999999999999996 1.1547005383792512 17.1
    vertex 18.000000000000007 15.999999999999998 0.0
    vertex 18.000000000000007 15.999999999999998 17.1
  endloop
endfacet
facet normal 0.4999999999999998 0.8660254037844388 0.0
  outer loop
    vertex 17.999999999999996 1.1547005383792512 17.1
    vertex 30.856406460551018 -6.26794919243112 0.0
    vertex 17.999999999999996 1.1547005383792512 0.0
  endloop
endfacet
facet normal 0.4999999999999998 0.8660254037844388 0.0
  outer loop
    vertex 30.856406460551018 -6.26794919243112 0.0
    vertex 17.999999999999996 1.1547005383792512 17.1
    vertex 30.856406460551018 -6.26794919243112 17.1
  endloop
endfacet
facet normal 0.49999999999999933 -0.866025403784439 -2.199651922633719e-17
  outer loop
    vertex 0.0 0.0 17.1
    vertex -13.856406460551025 -7.999999999999985 1.9999999999999998
    vertex 0.0 0.0 1.9999999999999998
  endloop
endfacet
facet normal 0.49999999999999933 -0.866025403784439 -2.199651922633719e-17
  outer loop
    vertex -13.856406460551025 -7.999999999999985 1.9999999999999998
    vertex 0.0 0.0 17.1
    vertex -12.124355652982146 -6.9999999999999885 14.0
  endloop
endfacet
facet normal 0.49999999999999933 -0.866025403784439 -2.199651922633719e-17
  outer loop
    vertex -12.124355652982146 -6.9999999999999885 14.0
    vertex 0.0 0.0 17.1
    vertex -12.124355652982143 -6.99999999999999 17.1
  endloop
endfacet
facet normal 0.49999999999999933 -0.866025403784439 -2.199651922633719e-17
  outer loop
    vertex -13.856406460551025 -7.9999999999999885 14.0
    vertex -13.856406460551025 -7.999999999999985 1.9999999999999998
    vertex -12.124355652982146 -6.9999999999999885 14.0
  endloop
endfacet
facet normal 1.0 -3.7284602445873976e-16 -1.267386610497242e-17
  outer loop
    vertex 8.459899447643692e-15 16.000000000000007 1.9999999999999996
    vertex 0.0 0.0 17.1
    vertex 0.0 0.0 1.9999999999999998
  endloop
endfacet
facet normal 1.0 -3.7284602445873976e-16 -1.267386610497242e-17
  outer loop
    vertex 0.0 0.0 17.1
    vertex 8.459899447643692e-15 16.000000000000007 1.9999999999999996
    vertex 7.754907827006718e-15 14.000000000000016 14.0
  endloop
endfacet
facet normal 1.0 -3.7284602445873976e-16 -1.267386610497242e-17
  outer loop
    vertex 0.0 0.0 17.1
    vertex 7.754907827006718e-15 14.000000000000016 14.0
    vertex 0.0 13.999999999999996 17.1
  endloop
endfacet
facet normal 1.0 -3.7284602445873976e-16 -1.267386610497242e-17
  outer loop
    vertex 7.754907827006718e-15 14.000000000000016 14.0
    vertex 8.459899447643692e-15 16.000000000000007 1.9999999999999996
    vertex 8.459899447643692e-15 16.000000000000014 14.0
  endloop
endfacet
facet normal -1.7624790515924327e-16 -1.0 3.617141641442259e-16
  outer loop
    vertex 16.000000000000004 13.999999999999996 17.1
    vertex 7.754907827006718e-15 14.000000000000016 14.0
    vertex 16.000000000000007 14.000000000000009 14.0
  endloop
endfacet
facet normal -1.7624790515924327e-16 -1.0 3.617141641442259e-16
  outer loop
    vertex 7.754907827006718e-15 14.000000000000016 14.0
    vertex 16.000000000000004 13.999999999999996 17.1
    vertex 0.0 13.999999999999996 17.1
  endloop
endfacet
facet normal -1.0 5.021947122527542e-16 1.5846632832546802e-17
  outer loop
    vertex 16.000000000000004 13.999999999999996 17.1
    vertex 15.999999999999998 0.0 1.9999999999999998
    vertex 15.999999999999998 0.0 17.1
  endloop
endfacet
facet normal -1.0 5.021947122527542e-16 1.5846632832546802e-17
  outer loop
    vertex 15.999999999999998 0.0 1.9999999999999998
    vertex 16.000000000000004 13.999999999999996 17.1
    vertex 16.000000000000007 14.000000000000009 14.0
  endloop
endfacet
facet normal -1.0 5.021947122527542e-16 1.5846632832546802e-17
  outer loop
    vertex 15.999999999999998 0.0 1.9999999999999998
    vertex 16.000000000000007 14.000000000000009 14.0
    vertex 16.000000000000007 16.000000000000004 1.9999999999999991
  endloop
endfacet
facet normal -1.0 5.021947122527542e-16 1.5846632832546802e-17
  outer loop
    vertex 16.000000000000007 16.000000000000004 1.9999999999999991
    vertex 16.000000000000007 14.000000000000009 14.0
    vertex 16.000000000000007 16.000000000000007 14.0
  endloop
endfacet
facet normal -0.5 -0.8660254037844387 -1.5346996747570901e-16
  outer loop
    vertex 29.85640646055102 -7.9999999999999964 2.0
    vertex 15.999999999999998 0.0 17.1
    vertex 15.999999999999998 0.0 1.9999999999999998
  endloop
endfacet
facet normal -0.5 -0.8660254037844387 -1.5346996747570901e-16
  outer loop
    vertex 15.999999999999998 0.0 17.1
    vertex 29.85640646055102 -7.9999999999999964 2.0
    vertex 28.124355652982132 -6.999999999999997 14.0
  endloop
endfacet
facet normal -0.5 -0.8660254037844387 -1.5346996747570901e-16
  outer loop
    vertex 28.124355652982132 -6.999999999999997 14.0
    vertex 29.85640646055102 -7.9999999999999964 2.0
    vertex 29.85640646055101 -7.9999999999999964 14.0
  endloop
endfacet
facet normal -0.5 -0.8660254037844387 -1.5346996747570901e-16
  outer loop
    vertex 15.999999999999998 0.0 17.1
    vertex 28.124355652982132 -6.999999999999997 14.0
    vertex 28.124355652982143 -6.999999999999997 17.1
  endloop
endfacet
facet normal -0.8660254037844388 0.4999999999999996 -1.881265421666981e-16
  outer loop
    vertex 28.124355652982143 -6.999999999999997 17.1
    vertex 20.124355652982132 -20.85640646055103 14.0
    vertex 20.12435565298214 -20.85640646055103 17.1
  endloop
endfacet
facet normal -0.8660254037844388 0.4999999999999996 -1.881265421666981e-16
  outer loop
    vertex 20.124355652982132 -20.85640646055103 14.0
    vertex 28.124355652982143 -6.999999999999997 17.1
    vertex 28.124355652982132 -6.999999999999997 14.0
  endloop
endfacet
facet normal 0.5000000000000004 0.8660254037844384 7.736706762366876e-17
  outer loop
    vertex 7.999999999999999 -13.856406460551025 17.1
    vertex 20.124355652982132 -20.85640646055103 14.0
    vertex 7.999999999999999 -13.856406460551025 1.9999999999999998
  endloop
endfacet
facet normal 0.5000000000000004 0.8660254037844384 7.736706762366876e-17
  outer loop
    vertex 20.124355652982132 -20.85640646055103 14.0
    vertex 7.999999999999999 -13.856406460551025 17.1
    vertex 20.12435565298214 -20.85640646055103 17.1
  endloop
endfacet
facet normal 0.5000000000000004 0.8660254037844384 7.736706762366876e-17
  outer loop
    vertex 7.999999999999999 -13.856406460551025 1.9999999999999998
    vertex 21.85640646055101 -21.856406460551028 14.0
    vertex 21.85640646055101 -21.856406460551028 1.999999999999993
  endloop
endfacet
facet normal 0.5000000000000004 0.8660254037844384 7.736706762366876e-17
  outer loop
    vertex 21.85640646055101 -21.856406460551028 14.0
    vertex 7.999999999999999 -13.856406460551025 1.9999999999999998
    vertex 20.124355652982132 -20.85640646055103 14.0
  endloop
endfacet
facet normal -0.49999999999999983 0.8660254037844389 3.792503314885724e-17
  outer loop
    vertex -5.856406460551018 -21.856406460551018 2.0
    vertex 7.999999999999999 -13.856406460551025 17.1
    vertex 7.999999999999999 -13.856406460551025 1.9999999999999998
  endloop
endfacet
facet normal -0.49999999999999983 0.8660254037844389 3.792503314885724e-17
  outer loop
    vertex 7.999999999999999 -13.856406460551025 17.1
    vertex -5.856406460551018 -21.856406460551018 2.0
    vertex -4.124355652982142 -20.85640646055102 14.0
  endloop
endfacet
facet normal -0.49999999999999983 0.8660254037844389 3.792503314885724e-17
  outer loop
    vertex -4.124355652982142 -20.85640646055102 14.0
    vertex -5.856406460551018 -21.856406460551018 2.0
    vertex -5.856406460551019 -21.856406460551018 14.0
  endloop
endfacet
facet normal -0.49999999999999983 0.8660254037844389 3.792503314885724e-17
  outer loop
    vertex 7.999999999999999 -13.856406460551025 17.1
    vertex -4.124355652982142 -20.85640646055102 14.0
    vertex -4.124355652982139 -20.85640646055102 17.1
  endloop
endfacet
facet normal 0.8660254037844387 0.49999999999999983 6.739551386812634e-17
  outer loop
    vertex -12.124355652982146 -6.9999999999999885 14.0
    vertex -4.124355652982139 -20.85640646055102 17.1
    vertex -4.124355652982142 -20.85640646055102 14.0
  endloop
endfacet
facet normal 0.8660254037844387 0.49999999999999983 6.739551386812634e-17
  outer loop
    vertex -4.124355652982139 -20.85640646055102 17.1
    vertex -12.124355652982146 -6.9999999999999885 14.0
    vertex -12.124355652982143 -6.99999999999999 17.1
  endloop
endfacet
facet normal 0.0 0.0 -1.0
  outer loop
    vertex 28.124355652982132 -6.999999999999997 14.0
    vertex 21.85640646055101 -21.856406460551028 14.0
    vertex 20.124355652982132 -20.85640646055103 14.0
  endloop
endfacet
facet normal 0.0 0.0 -1.0
  outer loop
    vertex 21.85640646055101 -21.856406460551028 14.0
    vertex 28.124355652982132 -6.999999999999997 14.0
    vertex 29.85640646055101 -7.9999999999999964 14.0
  endloop
endfacet
facet normal 0.0 0.0 -1.0
  outer loop
    vertex -12.124355652982146 -6.9999999999999885 14.0
    vertex -5.856406460551019 -21.856406460551018 14.0
    vertex -13.856406460551025 -7.9999999999999885 14.0
  endloop
endfacet
facet normal 0.0 0.0 -1.0
  outer loop
    vertex -5.856406460551019 -21.856406460551018 14.0
    vertex -12.124355652982146 -6.9999999999999885 14.0
    vertex -4.124355652982142 -20.85640646055102 14.0
  endloop
endfacet
facet normal 0.0 0.0 -1.0
  outer loop
    vertex 8.459899447643692e-15 16.000000000000014 14.0
    vertex 16.000000000000007 14.000000000000009 14.0
    vertex 7.754907827006718e-15 14.000000000000016 14.0
  endloop
endfacet
facet normal 0.0 0.0 -1.0
  outer loop
    vertex 16.000000000000007 14.000000000000009 14.0
    vertex 8.459899447643692e-15 16.000000000000014 14.0
    vertex 16.000000000000007 16.000000000000007 14.0
  endloop
endfacet
facet normal 0.4999999999999997 -0.8660254037844388 0.0
  outer loop
    vertex 7.9999999999999885 -16.165807537309536 17.1
    vertex -4.856406460551019 -23.588457268119896 0.0
    vertex 7.9999999999999885 -16.165807537309536 0.0
  endloop
endfacet
facet normal 0.4999999999999997 -0.8660254037844388 0.0
  outer loop
    vertex -4.856406460551019 -23.588457268119896 0.0
    vertex 7.9999999999999885 -16.165807537309536 17.1
    vertex -4.856406460551019 -23.588457268119896 17.1
  endloop
endfacet
facet normal 0.0 0.0 1.0
  outer loop
    vertex -4.856406460551019 -23.588457268119896 17.1
    vertex -12.124355652982143 -6.99999999999999 17.1
    vertex -14.856406460551023 -6.26794919243111 17.1
  endloop
endfacet
facet normal 0.0 0.0 1.0
  outer loop
    vertex -12.124355652982143 -6.99999999999999 17.1
    vertex -4.856406460551019 -23.588457268119896 17.1
    vertex -4.124355652982139 -20.85640646055102 17.1
  endloop
endfacet
facet normal 0.0 0.0 1.0
  outer loop
    vertex -4.124355652982139 -20.85640646055102 17.1
    vertex -4.856406460551019 -23.588457268119896 17.1
    vertex 7.9999999999999885 -16.165807537309536 17.1
  endloop
endfacet
facet normal 0.0 0.0 1.0
  outer loop
    vertex -4.124355652982139 -20.85640646055102 17.1
    vertex 7.9999999999999885 -16.165807537309536 17.1
    vertex 7.999999999999999 -13.856406460551025 17.1
  endloop
endfacet
facet normal 0.0 0.0 1.0
  outer loop
    vertex 7.999999999999999 -13.856406460551025 17.1
    vertex 7.9999999999999885 -16.165807537309536 17.1
    vertex 20.856406460551014 -23.588457268119907 17.1
  endloop
endfacet
facet normal 0.0 0.0 1.0
  outer loop
    vertex 7.999999999999999 -13.856406460551025 17.1
    vertex 20.856406460551014 -23.588457268119907 17.1
    vertex 20.12435565298214 -20.85640646055103 17.1
  endloop
endfacet
facet normal 0.0 0.0 1.0
  outer loop
    vertex 20.12435565298214 -20.85640646055103 17.1
    vertex 20.856406460551014 -23.588457268119907 17.1
    vertex 28.124355652982143 -6.999999999999997 17.1
  endloop
endfacet
facet normal 0.0 0.0 1.0
  outer loop
    vertex 28.124355652982143 -6.999999999999997 17.1
    vertex 20.856406460551014 -23.588457268119907 17.1
    vertex 30.856406460551018 -6.26794919243112 17.1
  endloop
endfacet
facet normal 0.0 0.0 1.0
  outer loop
    vertex 15.999999999999998 0.0 17.1
    vertex 17.999999999999996 1.1547005383792512 17.1
    vertex 16.000000000000004 13.999999999999996 17.1
  endloop
endfacet
facet normal 0.0 0.0 1.0
  outer loop
    vertex 17.999999999999996 1.1547005383792512 17.1
    vertex 15.999999999999998 0.0 17.1
    vertex 28.124355652982143 -6.999999999999997 17.1
  endloop
endfacet
facet normal 0.0 0.0 1.0
  outer loop
    vertex 17.999999999999996 1.1547005383792512 17.1
    vertex 28.124355652982143 -6.999999999999997 17.1
    vertex 30.856406460551018 -6.26794919243112 17.1
  endloop
endfacet
facet normal 0.0 0.0 1.0
  outer loop
    vertex -12.124355652982143 -6.99999999999999 17.1
    vertex -1.9999999999999996 1.154700538379264 17.1
    vertex -14.856406460551023 -6.26794919243111 17.1
  endloop
endfacet
facet normal 0.0 0.0 1.0
  outer loop
    vertex -1.9999999999999996 1.154700538379264 17.1
    vertex -12.124355652982143 -6.99999999999999 17.1
    vertex 0.0 0.0 17.1
  endloop
endfacet
facet normal 0.0 0.0 1.0
  outer loop
    vertex -1.9999999999999996 1.154700538379264 17.1
    vertex 0.0 0.0 17.1
    vertex -1.9999999999999991 15.999999999999998 17.1
  endloop
endfacet
facet normal 0.0 0.0 1.0
  outer loop
    vertex -1.9999999999999991 15.999999999999998 17.1
    vertex 0.0 0.0 17.1
    vertex 0.0 13.999999999999996 17.1
  endloop
endfacet
facet normal 0.0 0.0 1.0
  outer loop
    vertex -1.9999999999999991 15.999999999999998 17.1
    vertex 0.0 13.999999999999996 17.1
    vertex 18.000000000000007 15.999999999999998 17.1
  endloop
endfacet
facet normal 0.0 0.0 1.0
  outer loop
    vertex 18.000000000000007 15.999999999999998 17.1
    vertex 0.0 13.999999999999996 17.1
    vertex 16.000000000000004 13.999999999999996 17.1
  endloop
endfacet
facet normal 0.0 0.0 1.0
  outer loop
    vertex 18.000000000000007 15.999999999999998 17.1
    vertex 16.000000000000004 13.999999999999996 17.1
    vertex 17.999999999999996 1.1547005383792512 17.1
  endloop
endfacet
facet normal 0.7933533402912337 0.6087614290087224 0.0
  outer loop
    vertex 6.700961894323344 -5.368802153517032 0.9999999999999999
    vertex 6.939339828220181 -5.6794623252968535 1.9999999999999998
    vertex 6.939339828220181 -5.6794623252968535 0.9999999999999999
  endloop
endfacet
facet normal 0.7933533402912337 0.6087614290087224 0.0
  outer loop
    vertex 6.939339828220181 -5.6794623252968535 1.9999999999999998
    vertex 6.700961894323344 -5.368802153517032 0.9999999999999999
    vertex 6.700961894323344 -5.368802153517032 1.9999999999999998
  endloop
endfacet
facet normal 0.9238795325112877 0.3826834323650876 0.0
  outer loop
    vertex 6.5511112605664 -5.007030721170812 0.9999999999999999
    vertex 6.700961894323344 -5.368802153517032 1.9999999999999998
    vertex 6.700961894323344 -5.368802153517032 0.9999999999999999
  endloop
endfacet
facet normal 0.9238795325112877 0.3826834323650876 0.0
  outer loop
    vertex 6.700961894323344 -5.368802153517032 1.9999999999999998
    vertex 6.5511112605664 -5.007030721170812 0.9999999999999999
    vertex 6.5511112605664 -5.007030721170812 1.9999999999999998
  endloop
endfacet
facet normal 0.9914448613738104 0.1305261922200519 0.0
  outer loop
    vertex 6.500000000000002 -4.618802153517032 0.9999999999999999
    vertex 6.5511112605664 -5.007030721170812 1.9999999999999998
    vertex 6.5511112605664 -5.007030721170812 0.9999999999999999
  endloop
endfacet
facet normal 0.9914448613738104 0.1305261922200519 0.0
  outer loop
    vertex 6.5511112605664 -5.007030721170812 1.9999999999999998
    vertex 6.500000000000002 -4.618802153517032 0.9999999999999999
    vertex 6.500000000000002 -4.618802153517032 1.9999999999999998
  endloop
endfacet
facet normal 0.9914448613738105 -0.13052619222005168 0.0
  outer loop
    vertex 6.5511112605664 -4.230573585863251 0.9999999999999999
    vertex 6.500000000000002 -4.618802153517032 1.9999999999999998
    vertex 6.500000000000002 -4.618802153517032 0.9999999999999999
  endloop
endfacet
facet normal 0.9914448613738105 -0.13052619222005168 0.0
  outer loop
    vertex 6.500000000000002 -4.618802153517032 1.9999999999999998
    vertex 6.5511112605664 -4.230573585863251 0.9999999999999999
    vertex 6.5511112605664 -4.230573585863251 1.9999999999999998
  endloop
endfacet
facet normal 0.9238795325112874 -0.3826834323650882 0.0
  outer loop
    vertex 6.700961894323344 -3.868802153517032 0.9999999999999999
    vertex 6.5511112605664 -4.230573585863251 1.9999999999999998
    vertex 6.5511112605664 -4.230573585863251 0.9999999999999999
  endloop
endfacet
facet normal 0.9238795325112874 -0.3826834323650882 0.0
  outer loop
    vertex 6.5511112605664 -4.230573585863251 1.9999999999999998
    vertex 6.700961894323344 -3.868802153517032 0.9999999999999999
    vertex 6.700961894323344 -3.868802153517032 1.9999999999999998
  endloop
endfacet
facet normal 0.7933533402912344 -0.6087614290087215 0.0
  outer loop
    vertex 6.939339828220181 -3.55814198173721 0.9999999999999999
    vertex 6.700961894323344 -3.868802153517032 1.9999999999999998
    vertex 6.700961894323344 -3.868802153517032 0.9999999999999999
  endloop
endfacet
facet normal 0.7933533402912344 -0.6087614290087215 0.0
  outer loop
    vertex 6.700961894323344 -3.868802153517032 1.9999999999999998
    vertex 6.939339828220181 -3.55814198173721 0.9999999999999999
    vertex 6.939339828220181 -3.55814198173721 1.9999999999999998
  endloop
endfacet
facet normal 0.6087614290087213 -0.7933533402912346 0.0
  outer loop
    vertex 7.250000000000003 -3.319764047840373 1.9999999999999998
    vertex 6.939339828220181 -3.55814198173721 0.9999999999999999
    vertex 7.250000000000003 -3.319764047840373 0.9999999999999999
  endloop
endfacet
facet normal 0.6087614290087213 -0.7933533402912346 0.0
  outer loop
    vertex 6.939339828220181 -3.55814198173721 0.9999999999999999
    vertex 7.250000000000003 -3.319764047840373 1.9999999999999998
    vertex 6.939339828220181 -3.55814198173721 1.9999999999999998
  endloop
endfacet
facet normal 0.38268343236509056 -0.9238795325112865 0.0
  outer loop
    vertex 7.611771432346221 -3.1699134140834286 1.9999999999999998
    vertex 7.250000000000003 -3.319764047840373 0.9999999999999999
    vertex 7.611771432346221 -3.1699134140834286 0.9999999999999999
  endloop
endfacet
facet normal 0.38268343236509056 -0.9238795325112865 0.0
  outer loop
    vertex 7.250000000000003 -3.319764047840373 0.9999999999999999
    vertex 7.611771432346221 -3.1699134140834286 1.9999999999999998
    vertex 7.250000000000003 -3.319764047840373 1.9999999999999998
  endloop
endfacet
facet normal 0.13052619222005168 -0.9914448613738105 0.0
  outer loop
    vertex 8.000000000000002 -3.1188021535170307 1.9999999999999998
    vertex 7.611771432346221 -3.1699134140834286 0.9999999999999999
    vertex 8.000000000000002 -3.1188021535170307 0.9999999999999999
  endloop
endfacet
facet normal 0.13052619222005168 -0.9914448613738105 0.0
  outer loop
    vertex 7.611771432346221 -3.1699134140834286 0.9999999999999999
    vertex 8.000000000000002 -3.1188021535170307 1.9999999999999998
    vertex 7.611771432346221 -3.1699134140834286 1.9999999999999998
  endloop
endfacet
facet normal -0.1305261922200508 -0.9914448613738105 -0.0
  outer loop
    vertex 8.388228567653783 -3.169913414083428 1.9999999999999998
    vertex 8.000000000000002 -3.1188021535170307 0.9999999999999999
    vertex 8.388228567653783 -3.169913414083428 0.9999999999999999
  endloop
endfacet
facet normal -0.1305261922200508 -0.9914448613738105 -0.0
  outer loop
    vertex 8.000000000000002 -3.1188021535170307 0.9999999999999999
    vertex 8.388228567653783 -3.169913414083428 1.9999999999999998
    vertex 8.000000000000002 -3.1188021535170307 1.9999999999999998
  endloop
endfacet
facet normal -0.3826834323650898 -0.9238795325112867 -0.0
  outer loop
    vertex 8.750000000000002 -3.3197640478403723 1.9999999999999998
    vertex 8.388228567653783 -3.169913414083428 0.9999999999999999
    vertex 8.750000000000002 -3.3197640478403723 0.9999999999999999
  endloop
endfacet
facet normal -0.3826834323650898 -0.9238795325112867 -0.0
  outer loop
    vertex 8.388228567653783 -3.169913414083428 0.9999999999999999
    vertex 8.750000000000002 -3.3197640478403723 1.9999999999999998
    vertex 8.388228567653783 -3.169913414083428 1.9999999999999998
  endloop
endfacet
facet normal -0.6087614290087213 -0.7933533402912346 -0.0
  outer loop
    vertex 9.060660171779823 -3.5581419817372093 1.9999999999999998
    vertex 8.750000000000002 -3.3197640478403723 0.9999999999999999
    vertex 9.060660171779823 -3.5581419817372093 0.9999999999999999
  endloop
endfacet
facet normal -0.6087614290087213 -0.7933533402912346 -0.0
  outer loop
    vertex 8.750000000000002 -3.3197640478403723 0.9999999999999999
    vertex 9.060660171779823 -3.5581419817372093 1.9999999999999998
    vertex 8.750000000000002 -3.3197640478403723 1.9999999999999998
  endloop
endfacet
facet normal -0.7933533402912337 -0.6087614290087224 -0.0
  outer loop
    vertex 9.060660171779823 -3.5581419817372093 1.9999999999999998
    vertex 9.299038105676662 -3.8688021535170303 0.9999999999999999
    vertex 9.299038105676662 -3.8688021535170303 1.9999999999999998
  endloop
endfacet
facet normal -0.7933533402912337 -0.6087614290087224 -0.0
  outer loop
    vertex 9.299038105676662 -3.8688021535170303 0.9999999999999999
    vertex 9.060660171779823 -3.5581419817372093 1.9999999999999998
    vertex 9.060660171779823 -3.5581419817372093 0.9999999999999999
  endloop
endfacet
facet normal -0.9238795325112874 -0.3826834323650882 -0.0
  outer loop
    vertex 9.299038105676662 -3.8688021535170303 1.9999999999999998
    vertex 9.448888739433604 -4.230573585863249 0.9999999999999999
    vertex 9.448888739433604 -4.230573585863249 1.9999999999999998
  endloop
endfacet
facet normal -0.9238795325112874 -0.3826834323650882 -0.0
  outer loop
    vertex 9.448888739433604 -4.230573585863249 0.9999999999999999
    vertex 9.299038105676662 -3.8688021535170303 1.9999999999999998
    vertex 9.299038105676662 -3.8688021535170303 0.9999999999999999
  endloop
endfacet
facet normal -0.9914448613738105 -0.13052619222005168 -0.0
  outer loop
    vertex 9.448888739433604 -4.230573585863249 1.9999999999999998
    vertex 9.500000000000002 -4.618802153517031 0.9999999999999999
    vertex 9.500000000000002 -4.618802153517031 1.9999999999999998
  endloop
endfacet
facet normal -0.9914448613738105 -0.13052619222005168 -0.0
  outer loop
    vertex 9.500000000000002 -4.618802153517031 0.9999999999999999
    vertex 9.448888739433604 -4.230573585863249 1.9999999999999998
    vertex 9.448888739433604 -4.230573585863249 0.9999999999999999
  endloop
endfacet
facet normal -0.9914448613738104 0.1305261922200519 0.0
  outer loop
    vertex 9.500000000000002 -4.618802153517031 1.9999999999999998
    vertex 9.448888739433604 -5.007030721170811 0.9999999999999999
    vertex 9.448888739433604 -5.007030721170811 1.9999999999999998
  endloop
endfacet
facet normal -0.9914448613738104 0.1305261922200519 0.0
  outer loop
    vertex 9.448888739433604 -5.007030721170811 0.9999999999999999
    vertex 9.500000000000002 -4.618802153517031 1.9999999999999998
    vertex 9.500000000000002 -4.618802153517031 0.9999999999999999
  endloop
endfacet
facet normal -0.9238795325112877 0.3826834323650876 0.0
  outer loop
    vertex 9.448888739433604 -5.007030721170811 1.9999999999999998
    vertex 9.299038105676662 -5.368802153517031 0.9999999999999999
    vertex 9.299038105676662 -5.368802153517031 1.9999999999999998
  endloop
endfacet
facet normal -0.9238795325112877 0.3826834323650876 0.0
  outer loop
    vertex 9.299038105676662 -5.368802153517031 0.9999999999999999
    vertex 9.448888739433604 -5.007030721170811 1.9999999999999998
    vertex 9.448888739433604 -5.007030721170811 0.9999999999999999
  endloop
endfacet
facet normal -0.793353340291235 0.6087614290087207 0.0
  outer loop
    vertex 9.299038105676662 -5.368802153517031 1.9999999999999998
    vertex 9.060660171779823 -5.6794623252968535 0.9999999999999999
    vertex 9.060660171779823 -5.6794623252968535 1.9999999999999998
  endloop
endfacet
facet normal -0.793353340291235 0.6087614290087207 0.0
  outer loop
    vertex 9.060660171779823 -5.6794623252968535 0.9999999999999999
    vertex 9.299038105676662 -5.368802153517031 1.9999999999999998
    vertex 9.299038105676662 -5.368802153517031 0.9999999999999999
  endloop
endfacet
facet normal -0.6087614290087202 0.7933533402912355 0.0
  outer loop
    vertex 8.750000000000002 -5.91784025919369 1.9999999999999998
    vertex 9.060660171779823 -5.6794623252968535 0.9999999999999999
    vertex 8.750000000000002 -5.91784025919369 0.9999999999999999
  endloop
endfacet
facet normal -0.6087614290087202 0.7933533402912355 0.0
  outer loop
    vertex 9.060660171779823 -5.6794623252968535 0.9999999999999999
    vertex 8.750000000000002 -5.91784025919369 1.9999999999999998
    vertex 9.060660171779823 -5.6794623252968535 1.9999999999999998
  endloop
endfacet
facet normal -0.3826834323650898 0.9238795325112867 0.0
  outer loop
    vertex 8.388228567653783 -6.067690892950633 1.9999999999999998
    vertex 8.750000000000002 -5.91784025919369 0.9999999999999999
    vertex 8.388228567653783 -6.067690892950633 0.9999999999999999
  endloop
endfacet
facet normal -0.3826834323650898 0.9238795325112867 0.0
  outer loop
    vertex 8.750000000000002 -5.91784025919369 0.9999999999999999
    vertex 8.388228567653783 -6.067690892950633 1.9999999999999998
    vertex 8.750000000000002 -5.91784025919369 1.9999999999999998
  endloop
endfacet
facet normal -0.13052619222005346 0.9914448613738103 0.0
  outer loop
    vertex 8.000000000000002 -6.118802153517032 1.9999999999999998
    vertex 8.388228567653783 -6.067690892950633 0.9999999999999999
    vertex 8.000000000000002 -6.118802153517032 0.9999999999999999
  endloop
endfacet
facet normal -0.13052619222005346 0.9914448613738103 0.0
  outer loop
    vertex 8.388228567653783 -6.067690892950633 0.9999999999999999
    vertex 8.000000000000002 -6.118802153517032 1.9999999999999998
    vertex 8.388228567653783 -6.067690892950633 1.9999999999999998
  endloop
endfacet
facet normal 0.13052619222005168 0.9914448613738105 0.0
  outer loop
    vertex 7.611771432346221 -6.067690892950634 1.9999999999999998
    vertex 8.000000000000002 -6.118802153517032 0.9999999999999999
    vertex 7.611771432346221 -6.067690892950634 0.9999999999999999
  endloop
endfacet
facet normal 0.13052619222005168 0.9914448613738105 0.0
  outer loop
    vertex 8.000000000000002 -6.118802153517032 0.9999999999999999
    vertex 7.611771432346221 -6.067690892950634 1.9999999999999998
    vertex 8.000000000000002 -6.118802153517032 1.9999999999999998
  endloop
endfacet
facet normal 0.3826834323650898 0.9238795325112867 0.0
  outer loop
    vertex 7.250000000000003 -5.91784025919369 1.9999999999999998
    vertex 7.611771432346221 -6.067690892950634 0.9999999999999999
    vertex 7.250000000000003 -5.91784025919369 0.9999999999999999
  endloop
endfacet
facet normal 0.3826834323650898 0.9238795325112867 0.0
  outer loop
    vertex 7.611771432346221 -6.067690892950634 0.9999999999999999
    vertex 7.250000000000003 -5.91784025919369 1.9999999999999998
    vertex 7.611771432346221 -6.067690892950634 1.9999999999999998
  endloop
endfacet
facet normal 0.6087614290087213 0.7933533402912346 0.0
  outer loop
    vertex 6.939339828220181 -5.6794623252968535 1.9999999999999998
    vertex 7.250000000000003 -5.91784025919369 0.9999999999999999
    vertex 6.939339828220181 -5.6794623252968535 0.9999999999999999
  endloop
endfacet
facet normal 0.6087614290087213 0.7933533402912346 0.0
  outer loop
    vertex 7.250000000000003 -5.91784025919369 0.9999999999999999
    vertex 6.939339828220181 -5.6794623252968535 1.9999999999999998
    vertex 7.250000000000003 -5.91784025919369 1.9999999999999998
  endloop
endfacet
facet normal 0.0 0.0 -1.0
  outer loop
    vertex 5.834936490538905 -3.36880215351703 0.9999999999999999
    vertex 6.5511112605664 -4.230573585863251 0.9999999999999999
    vertex 6.500000000000002 -4.618802153517032 0.9999999999999999
  endloop
endfacet
facet normal 0.0 0.0 -1.0
  outer loop
    vertex 6.5511112605664 -4.230573585863251 0.9999999999999999
    vertex 5.834936490538905 -3.36880215351703 0.9999999999999999
    vertex 6.700961894323344 -3.868802153517032 0.9999999999999999
  endloop
endfacet
facet normal 0.0 0.0 -1.0
  outer loop
    vertex 6.700961894323344 -3.868802153517032 0.9999999999999999
    vertex 5.834936490538905 -3.36880215351703 0.9999999999999999
    vertex 8.000000000000002 -2.1188021535170307 0.9999999999999999
  endloop
endfacet
facet normal 0.0 0.0 -1.0
  outer loop
    vertex 6.700961894323344 -3.868802153517032 0.9999999999999999
    vertex 8.000000000000002 -2.1188021535170307 0.9999999999999999
    vertex 6.939339828220181 -3.55814198173721 0.9999999999999999
  endloop
endfacet
facet normal 0.0 0.0 -1.0
  outer loop
    vertex 6.939339828220181 -3.55814198173721 0.9999999999999999
    vertex 8.000000000000002 -2.1188021535170307 0.9999999999999999
    vertex 7.250000000000003 -3.319764047840373 0.9999999999999999
  endloop
endfacet
facet normal 0.0 0.0 -1.0
  outer loop
    vertex 7.250000000000003 -3.319764047840373 0.9999999999999999
    vertex 8.000000000000002 -2.1188021535170307 0.9999999999999999
    vertex 7.611771432346221 -3.1699134140834286 0.9999999999999999
  endloop
endfacet
facet normal 0.0 0.0 -1.0
  outer loop
    vertex 7.611771432346221 -3.1699134140834286 0.9999999999999999
    vertex 8.000000000000002 -2.1188021535170307 0.9999999999999999
    vertex 8.000000000000002 -3.1188021535170307 0.9999999999999999
  endloop
endfacet
facet normal 0.0 0.0 -1.0
  outer loop
    vertex 8.000000000000002 -3.1188021535170307 0.9999999999999999
    vertex 8.000000000000002 -2.1188021535170307 0.9999999999999999
    vertex 10.1650635094611 -3.3688021535170316 0.9999999999999999
  endloop
endfacet
facet normal 0.0 0.0 -1.0
  outer loop
    vertex 8.000000000000002 -3.1188021535170307 0.9999999999999999
    vertex 10.1650635094611 -3.3688021535170316 0.9999999999999999
    vertex 8.388228567653783 -3.169913414083428 0.9999999999999999
  endloop
endfacet
facet normal 0.0 0.0 -1.0
  outer loop
    vertex 8.388228567653783 -3.169913414083428 0.9999999999999999
    vertex 10.1650635094611 -3.3688021535170316 0.9999999999999999
    vertex 8.750000000000002 -3.3197640478403723 0.9999999999999999
  endloop
endfacet
facet normal 0.0 0.0 -1.0
  outer loop
    vertex 8.750000000000002 -3.3197640478403723 0.9999999999999999
    vertex 10.1650635094611 -3.3688021535170316 0.9999999999999999
    vertex 9.060660171779823 -3.5581419817372093 0.9999999999999999
  endloop
endfacet
facet normal 0.0 0.0 -1.0
  outer loop
    vertex 9.060660171779823 -3.5581419817372093 0.9999999999999999
    vertex 10.1650635094611 -3.3688021535170316 0.9999999999999999
    vertex 9.299038105676662 -3.8688021535170303 0.9999999999999999
  endloop
endfacet
facet normal 0.0 0.0 -1.0
  outer loop
    vertex 9.299038105676662 -3.8688021535170303 0.9999999999999999
    vertex 10.1650635094611 -3.3688021535170316 0.9999999999999999
    vertex 9.448888739433604 -4.230573585863249 0.9999999999999999
  endloop
endfacet
facet normal 0.0 0.0 -1.0
  outer loop
    vertex 9.448888739433604 -4.230573585863249 0.9999999999999999
    vertex 10.1650635094611 -3.3688021535170316 0.9999999999999999
    vertex 9.500000000000002 -4.618802153517031 0.9999999999999999
  endloop
endfacet
facet normal 0.0 0.0 -1.0
  outer loop
    vertex 9.500000000000002 -4.618802153517031 0.9999999999999999
    vertex 10.1650635094611 -3.3688021535170316 0.9999999999999999
    vertex 10.165063509461099 -5.868802153517032 0.9999999999999999
  endloop
endfacet
facet normal 0.0 0.0 -1.0
  outer loop
    vertex 5.8349364905389045 -5.86880215351703 0.9999999999999999
    vertex 6.700961894323344 -5.368802153517032 0.9999999999999999
    vertex 8.000000000000002 -7.118802153517032 0.9999999999999999
  endloop
endfacet
facet normal 0.0 0.0 -1.0
  outer loop
    vertex 6.700961894323344 -5.368802153517032 0.9999999999999999
    vertex 5.8349364905389045 -5.86880215351703 0.9999999999999999
    vertex 5.834936490538905 -3.36880215351703 0.9999999999999999
  endloop
endfacet
facet normal 0.0 0.0 -1.0
  outer loop
    vertex 6.700961894323344 -5.368802153517032 0.9999999999999999
    vertex 5.834936490538905 -3.36880215351703 0.9999999999999999
    vertex 6.5511112605664 -5.007030721170812 0.9999999999999999
  endloop
endfacet
facet normal 0.0 0.0 -1.0
  outer loop
    vertex 6.5511112605664 -5.007030721170812 0.9999999999999999
    vertex 5.834936490538905 -3.36880215351703 0.9999999999999999
    vertex 6.500000000000002 -4.618802153517032 0.9999999999999999
  endloop
endfacet
facet normal 0.0 0.0 -1.0
  outer loop
    vertex 8.000000000000002 -7.118802153517032 0.9999999999999999
    vertex 6.700961894323344 -5.368802153517032 0.9999999999999999
    vertex 6.939339828220181 -5.6794623252968535 0.9999999999999999
  endloop
endfacet
facet normal 0.0 0.0 -1.0
  outer loop
    vertex 8.000000000000002 -7.118802153517032 0.9999999999999999
    vertex 6.939339828220181 -5.6794623252968535 0.9999999999999999
    vertex 7.250000000000003 -5.91784025919369 0.9999999999999999
  endloop
endfacet
facet normal 0.0 0.0 -1.0
  outer loop
    vertex 8.000000000000002 -7.118802153517032 0.9999999999999999
    vertex 7.250000000000003 -5.91784025919369 0.9999999999999999
    vertex 7.611771432346221 -6.067690892950634 0.9999999999999999
  endloop
endfacet
facet normal 0.0 0.0 -1.0
  outer loop
    vertex 8.000000000000002 -7.118802153517032 0.9999999999999999
    vertex 7.611771432346221 -6.067690892950634 0.9999999999999999
    vertex 8.000000000000002 -6.118802153517032 0.9999999999999999
  endloop
endfacet
facet normal 0.0 0.0 -1.0
  outer loop
    vertex 8.000000000000002 -7.118802153517032 0.9999999999999999
    vertex 8.000000000000002 -6.118802153517032 0.9999999999999999
    vertex 8.388228567653783 -6.067690892950633 0.9999999999999999
  endloop
endfacet
facet normal 0.0 0.0 -1.0
  outer loop
    vertex 8.000000000000002 -7.118802153517032 0.9999999999999999
    vertex 8.388228567653783 -6.067690892950633 0.9999999999999999
    vertex 10.165063509461099 -5.868802153517032 0.9999999999999999
  endloop
endfacet
facet normal 0.0 0.0 -1.0
  outer loop
    vertex 10.165063509461099 -5.868802153517032 0.9999999999999999
    vertex 8.388228567653783 -6.067690892950633 0.9999999999999999
    vertex 8.750000000000002 -5.91784025919369 0.9999999999999999
  endloop
endfacet
facet normal 0.0 0.0 -1.0
  outer loop
    vertex 10.165063509461099 -5.868802153517032 0.9999999999999999
    vertex 8.750000000000002 -5.91784025919369 0.9999999999999999
    vertex 9.060660171779823 -5.6794623252968535 0.9999999999999999
  endloop
endfacet
facet normal 0.0 0.0 -1.0
  outer loop
    vertex 10.165063509461099 -5.868802153517032 0.9999999999999999
    vertex 9.060660171779823 -5.6794623252968535 0.9999999999999999
    vertex 9.299038105676662 -5.368802153517031 0.9999999999999999
  endloop
endfacet
facet normal 0.0 0.0 -1.0
  outer loop
    vertex 10.165063509461099 -5.868802153517032 0.9999999999999999
    vertex 9.299038105676662 -5.368802153517031 0.9999999999999999
    vertex 9.448888739433604 -5.007030721170811 0.9999999999999999
  endloop
endfacet
facet normal 0.0 0.0 -1.0
  outer loop
    vertex 10.165063509461099 -5.868802153517032 0.9999999999999999
    vertex 9.448888739433604 -5.007030721170811 0.9999999999999999
    vertex 9.500000000000002 -4.618802153517031 0.9999999999999999
  endloop
endfacet
facet normal -0.49999999999999994 0.8660254037844387 0.0
  outer loop
    vertex 8.000000000000002 -7.118802153517032 0.9999999999999999
    vertex 10.165063509461099 -5.868802153517032 0.0
    vertex 8.000000000000002 -7.118802153517032 0.0
  endloop
endfacet
facet normal -0.49999999999999994 0.8660254037844387 0.0
  outer loop
    vertex 10.165063509461099 -5.868802153517032 0.0
    vertex 8.000000000000002 -7.118802153517032 0.9999999999999999
    vertex 10.165063509461099 -5.868802153517032 0.9999999999999999
  endloop
endfacet
facet normal 0.5000000000000003 0.8660254037844385 0.0
  outer loop
    vertex 5.8349364905389045 -5.86880215351703 0.9999999999999999
    vertex 8.000000000000002 -7.118802153517032 0.0
    vertex 5.8349364905389045 -5.86880215351703 0.0
  endloop
endfacet
facet normal 0.5000000000000003 0.8660254037844385 0.0
  outer loop
    vertex 8.000000000000002 -7.118802153517032 0.0
    vertex 5.8349364905389045 -5.86880215351703 0.9999999999999999
    vertex 8.000000000000002 -7.118802153517032 0.9999999999999999
  endloop
endfacet
facet normal 1.0 -5.639932965095796e-16 0.0
  outer loop
    vertex 5.834936490538905 -3.36880215351703 0.0
    vertex 5.8349364905389045 -5.86880215351703 0.9999999999999999
    vertex 5.8349364905389045 -5.86880215351703 0.0
  endloop
endfacet
facet normal 1.0 -5.639932965095796e-16 0.0
  outer loop
    vertex 5.8349364905389045 -5.86880215351703 0.9999999999999999
    vertex 5.834936490538905 -3.36880215351703 0.0
    vertex 5.834936490538905 -3.36880215351703 0.9999999999999999
  endloop
endfacet
facet normal 0.4999999999999998 -0.8660254037844388 0.0
  outer loop
    vertex 8.000000000000002 -2.1188021535170307 0.9999999999999999
    vertex 5.834936490538905 -3.36880215351703 0.0
    vertex 8.000000000000002 -2.1188021535170307 0.0
  endloop
endfacet
facet normal 0.4999999999999998 -0.8660254037844388 0.0
  outer loop
    vertex 5.834936490538905 -3.36880215351703 0.0
    vertex 8.000000000000002 -2.1188021535170307 0.9999999999999999
    vertex 5.834936490538905 -3.36880215351703 0.9999999999999999
  endloop
endfacet
facet normal -0.4999999999999999 -0.8660254037844386 -0.0
  outer loop
    vertex 10.1650635094611 -3.3688021535170316 0.9999999999999999
    vertex 8.000000000000002 -2.1188021535170307 0.0
    vertex 10.1650635094611 -3.3688021535170316 0.0
  endloop
endfacet
facet normal -0.4999999999999999 -0.8660254037844386 -0.0
  outer loop
    vertex 8.000000000000002 -2.1188021535170307 0.0
    vertex 10.1650635094611 -3.3688021535170316 0.9999999999999999
    vertex 8.000000000000002 -2.1188021535170307 0.9999999999999999
  endloop
endfacet
facet normal -1.0 5.639932965095794e-16 0.0
  outer loop
    vertex 10.1650635094611 -3.3688021535170316 0.9999999999999999
    vertex 10.165063509461099 -5.868802153517032 0.0
    vertex 10.165063509461099 -5.868802153517032 0.9999999999999999
  endloop
endfacet
facet normal -1.0 5.639932965095794e-16 0.0
  outer loop
    vertex 10.165063509461099 -5.868802153517032 0.0
    vertex 10.1650635094611 -3.3688021535170316 0.9999999999999999
    vertex 10.1650635094611 -3.3688021535170316 0.0
  endloop
endfacet
endsolid Splitter
