solid ImuEnclosureLid
facet normal 0.0 0.0 1.0
  outer loop
    vertex 0.0 0.0 19.0
    vertex 1.9999999999999998 1.9999999999999998 19.0
    vertex 0.0 54.0 19.0
  endloop
endfacet
facet normal 0.0 0.0 1.0
  outer loop
    vertex 1.9999999999999998 1.9999999999999998 19.0
    vertex 0.0 0.0 19.0
    vertex 28.0 0.0 19.0
  endloop
endfacet
facet normal 0.0 0.0 1.0
  outer loop
    vertex 1.9999999999999998 1.9999999999999998 19.0
    vertex 28.0 0.0 19.0
    vertex 25.999999999999996 1.9999999999999996 19.0
  endloop
endfacet
facet normal 0.0 0.0 1.0
  outer loop
    vertex 25.999999999999996 1.9999999999999996 19.0
    vertex 28.0 0.0 19.0
    vertex 25.999999999999996 52.00000000000001 19.0
  endloop
endfacet
facet normal 0.0 0.0 1.0
  outer loop
    vertex 0.0 54.0 19.0
    vertex 1.9999999999999998 52.00000000000001 19.0
    vertex 28.0 54.0 19.0
  endloop
endfacet
facet normal 0.0 0.0 1.0
  outer loop
    vertex 1.9999999999999998 52.00000000000001 19.0
    vertex 0.0 54.0 19.0
    vertex 1.9999999999999998 1.9999999999999998 19.0
  endloop
endfacet
facet normal 0.0 0.0 1.0
  outer loop
    vertex 28.0 54.0 19.0
    vertex 1.9999999999999998 52.00000000000001 19.0
    vertex 25.999999999999996 52.00000000000001 19.0
  endloop
endfacet
facet normal 0.0 0.0 1.0
  outer loop
    vertex 28.0 54.0 19.0
    vertex 25.999999999999996 52.00000000000001 19.0
    vertex 28.0 0.0 19.0
  endloop
endfacet
facet normal -1.0 0.0 0.0
  outer loop
    vertex 0.0 54.0 19.0
    vertex 0.0 1.105918240853536e-15 18.5
    vertex 0.0 0.0 19.0
  endloop
endfacet
facet normal -1.0 0.0 0.0
  outer loop
    vertex 0.0 1.105918240853536e-15 18.5
    vertex 0.0 54.0 19.0
    vertex 0.0 54.000000000000014 18.5
  endloop
endfacet
facet normal 0.9999999999916818 -1.5096349755578697e-07 4.076014431186291e-06
  outer loop
    vertex 27.99999388597835 1.105918240853536e-15 18.5
    vertex 28.0 54.0 19.0
    vertex 28.0 0.0 19.0
  endloop
endfacet
facet normal 0.9999999999916818 -1.5096349755578697e-07 4.076014431186291e-06
  outer loop
    vertex 28.0 54.0 19.0
    vertex 27.99999388597835 1.105918240853536e-15 18.5
    vertex 28.000010190036082 53.99999999999999 18.5
  endloop
endfacet
facet normal 4.0285235464967303e-16 1.0 4.105080030521232e-21
  outer loop
    vertex 0.0 54.0 19.0
    vertex 28.000010190036082 53.99999999999999 18.5
    vertex 0.0 54.000000000000014 18.5
  endloop
endfacet
facet normal 4.0285235464967303e-16 1.0 4.105080030521232e-21
  outer loop
    vertex 28.000010190036082 53.99999999999999 18.5
    vertex 0.0 54.0 19.0
    vertex 28.0 54.0 19.0
  endloop
endfacet
facet normal 1.4407589419226081e-33 -1.0 -2.2118364817070768e-15
  outer loop
    vertex 28.0 0.0 19.0
    vertex 0.0 1.105918240853536e-15 18.5
    vertex 27.99999388597835 1.105918240853536e-15 18.5
  endloop
endfacet
facet normal 1.4407589419226081e-33 -1.0 -2.2118364817070768e-15
  outer loop
    vertex 0.0 1.105918240853536e-15 18.5
    vertex 28.0 0.0 19.0
    vertex 0.0 0.0 19.0
  endloop
endfacet
facet normal 0.0 0.0 1.0
  outer loop
    vertex 25.999999999999996 1.9999999999999996 20.999999999999996
    vertex 1.9999999999999998 52.00000000000001 20.999999999999996
    vertex 1.9999999999999998 1.9999999999999998 20.999999999999996
  endloop
endfacet
facet normal 0.0 0.0 1.0
  outer loop
    vertex 1.9999999999999998 52.00000000000001 20.999999999999996
    vertex 25.999999999999996 1.9999999999999996 20.999999999999996
    vertex 25.999999999999996 52.00000000000001 20.999999999999996
  endloop
endfacet
facet normal -1.0 -0.0 -0.0
  outer loop
    vertex 1.9999999999999998 52.00000000000001 20.999999999999996
    vertex 1.9999999999999998 1.9999999999999998 19.0
    vertex 1.9999999999999998 1.9999999999999998 20.999999999999996
  endloop
endfacet
facet normal -1.0 -0.0 -0.0
  outer loop
    vertex 1.9999999999999998 1.9999999999999998 19.0
    vertex 1.9999999999999998 52.00000000000001 20.999999999999996
    vertex 1.9999999999999998 52.00000000000001 19.0
  endloop
endfacet
facet normal -1.4687325429936967e-17 -1.0 -0.0
  outer loop
    vertex 25.999999999999996 1.9999999999999996 20.999999999999996
    vertex 1.9999999999999998 1.9999999999999998 19.0
    vertex 25.999999999999996 1.9999999999999996 19.0
  endloop
endfacet
facet normal -1.4687325429936967e-17 -1.0 -0.0
  outer loop
    vertex 1.9999999999999998 1.9999999999999998 19.0
    vertex 25.999999999999996 1.9999999999999996 20.999999999999996
    vertex 1.9999999999999998 1.9999999999999998 20.999999999999996
  endloop
endfacet
facet normal 1.0 0.0 0.0
  outer loop
    vertex 25.999999999999996 52.00000000000001 19.0
    vertex 25.999999999999996 1.9999999999999996 20.999999999999996
    vertex 25.999999999999996 1.9999999999999996 19.0
  endloop
endfacet
facet normal 1.0 0.0 0.0
  outer loop
    vertex 25.999999999999996 1.9999999999999996 20.999999999999996
    vertex 25.999999999999996 52.00000000000001 19.0
    vertex 25.999999999999996 52.00000000000001 20.999999999999996
  endloop
endfacet
facet normal 0.0 1.0 0.0
  outer loop
    vertex 1.9999999999999998 52.00000000000001 20.999999999999996
    vertex 25.999999999999996 52.00000000000001 19.0
    vertex 1.9999999999999998 52.00000000000001 19.0
  endloop
endfacet
facet normal 0.0 1.0 0.0
  outer loop
    vertex 25.999999999999996 52.00000000000001 19.0
    vertex 1.9999999999999998 52.00000000000001 20.999999999999996
    vertex 25.999999999999996 52.00000000000001 20.999999999999996
  endloop
endfacet
facet normal 0.0 0.0 -1.0
  outer loop
    vertex 26.500015851154714 52.500000000000014 17.0
    vertex 1.5 1.4999999999999987 17.0
    vertex 1.5 52.500000000000014 17.0
  endloop
endfacet
facet normal 0.0 0.0 -1.0
  outer loop
    vertex 1.5 1.4999999999999987 17.0
    vertex 26.500015851154714 52.500000000000014 17.0
    vertex 26.500000452877963 1.4999999999999987 17.0
  endloop
endfacet
facet normal 5.215552703340444e-16 0.8467241992282833 -0.5320320765153379
  outer loop
    vertex 0.1485466981463714 53.851453301853645 17.84917439132366
    vertex 27.6727611269591 53.672747223702046 17.5647652972119
    vertex 0.32725277629795535 53.67274722370206 17.5647652972119
  endloop
endfacet
facet normal 5.215552703340444e-16 0.8467241992282833 -0.5320320765153379
  outer loop
    vertex 27.6727611269591 53.672747223702046 17.5647652972119
    vertex 0.1485466981463714 53.851453301853645 17.84917439132366
    vertex 27.85146609981279 53.851453301853624 17.84917439132366
  endloop
endfacet
facet normal -1.0625936841427266e-18 -0.3302790619551637 -0.9438833303083688
  outer loop
    vertex 1.1662185990655285 1.1662185990655274 17.037608131727264
    vertex 27.15082525957943 0.8491743913236621 17.14854669814637
    vertex 0.8491743913236628 0.8491743913236622 17.14854669814637
  endloop
endfacet
facet normal -1.0625936841427266e-18 -0.3302790619551637 -0.9438833303083688
  outer loop
    vertex 27.15082525957943 0.8491743913236621 17.14854669814637
    vertex 1.1662185990655285 1.1662185990655274 17.037608131727264
    vertex 26.833781599746317 1.1662185990655274 17.037608131727264
  endloop
endfacet
facet normal 0.70710822227377 -2.1349506081003743e-07 -0.7071053400963558
  outer loop
    vertex 27.43523353941423 0.5647652972118993 17.327252776297957
    vertex 27.6727611269591 53.672747223702046 17.5647652972119
    vertex 27.672745020514252 0.32725277629795535 17.5647652972119
  endloop
endfacet
facet normal 0.70710822227377 -2.1349506081003743e-07 -0.7071053400963558
  outer loop
    vertex 27.6727611269591 53.672747223702046 17.5647652972119
    vertex 27.43523353941423 0.5647652972118993 17.327252776297957
    vertex 27.435249502436193 53.43523470278811 17.327252776297957
  endloop
endfacet
facet normal 7.654005928920116e-16 0.9438833303083668 -0.33027906195516965
  outer loop
    vertex 0.037608131727264515 53.96239186827275 18.16621859906553
    vertex 27.85146609981279 53.851453301853624 17.84917439132366
    vertex 0.1485466981463714 53.851453301853645 17.84917439132366
  endloop
endfacet
facet normal 7.654005928920116e-16 0.9438833303083668 -0.33027906195516965
  outer loop
    vertex 27.85146609981279 53.851453301853624 17.84917439132366
    vertex 0.037608131727264515 53.96239186827275 18.16621859906553
    vertex 27.9624034074514 53.96239186827273 18.16621859906553
  endloop
endfacet
facet normal 2.9397958253613365e-16 0.7071067811865559 -0.7071067811865392
  outer loop
    vertex 0.32725277629795535 53.67274722370206 17.5647652972119
    vertex 27.435249502436193 53.43523470278811 17.327252776297957
    vertex 0.5647652972118998 53.43523470278812 17.327252776297957
  endloop
endfacet
facet normal 2.9397958253613365e-16 0.7071067811865559 -0.7071067811865392
  outer loop
    vertex 27.435249502436193 53.43523470278811 17.327252776297957
    vertex 0.32725277629795535 53.67274722370206 17.5647652972119
    vertex 27.6727611269591 53.672747223702046 17.5647652972119
  endloop
endfacet
facet normal 0.5320330534208061 -1.6063514112097567e-07 -0.8467235853970927
  outer loop
    vertex 27.150841050859825 53.15082560867635 17.148546698146372
    vertex 27.43523353941423 0.5647652972118993 17.327252776297957
    vertex 27.15082525957943 0.8491743913236621 17.14854669814637
  endloop
endfacet
facet normal 0.5320330534208061 -1.6063514112097567e-07 -0.8467235853970927
  outer loop
    vertex 27.43523353941423 0.5647652972118993 17.327252776297957
    vertex 27.150841050859825 53.15082560867635 17.148546698146372
    vertex 27.435249502436193 53.43523470278811 17.327252776297957
  endloop
endfacet
facet normal 0.3302794816311208 -9.972029142977116e-08 -0.9438831834572902
  outer loop
    vertex 26.833797199578303 52.83378140093449 17.037608131727264
    vertex 27.15082525957943 0.8491743913236621 17.14854669814637
    vertex 26.833781599746317 1.1662185990655274 17.037608131727264
  endloop
endfacet
facet normal 0.3302794816311208 -9.972029142977116e-08 -0.9438831834572902
  outer loop
    vertex 27.15082525957943 0.8491743913236621 17.14854669814637
    vertex 26.833797199578303 52.83378140093449 17.037608131727264
    vertex 27.150841050859825 53.15082560867635 17.148546698146372
  endloop
endfacet
facet normal 0.9937126605330103 -3.000286775891373e-07 -0.11196047649200337
  outer loop
    vertex 27.962387126103486 0.0376081317272654 18.16621859906553
    vertex 28.000010190036082 53.99999999999999 18.5
    vertex 27.99999388597835 1.105918240853536e-15 18.5
  endloop
endfacet
facet normal 0.9937126605330103 -3.000286775891373e-07 -0.11196047649200337
  outer loop
    vertex 28.000010190036082 53.99999999999999 18.5
    vertex 27.962387126103486 0.0376081317272654 18.16621859906553
    vertex 27.9624034074514 53.96239186827273 18.16621859906553
  endloop
endfacet
facet normal 0.8467257539644261 -2.5564936260990677e-07 -0.5320296021588545
  outer loop
    vertex 27.672745020514252 0.32725277629795535 17.5647652972119
    vertex 27.85146609981279 53.851453301853624 17.84917439132366
    vertex 27.85144988545557 0.14854669814637175 17.84917439132366
  endloop
endfacet
facet normal 0.8467257539644261 -2.5564936260990677e-07 -0.5320296021588545
  outer loop
    vertex 27.85146609981279 53.851453301853624 17.84917439132366
    vertex 27.672745020514252 0.32725277629795535 17.5647652972119
    vertex 27.6727611269591 53.672747223702046 17.5647652972119
  endloop
endfacet
facet normal 6.596633802678929e-20 0.11196447610330784 -0.9937122098932426
  outer loop
    vertex 26.833797199578303 52.83378140093449 17.037608131727264
    vertex 1.5 52.500000000000014 17.0
    vertex 1.1662185990655287 52.83378140093449 17.037608131727264
  endloop
endfacet
facet normal 6.596633802678929e-20 0.11196447610330784 -0.9937122098932426
  outer loop
    vertex 1.5 52.500000000000014 17.0
    vertex 26.833797199578303 52.83378140093449 17.037608131727264
    vertex 26.500015851154714 52.500000000000014 17.0
  endloop
endfacet
facet normal 0.9438845296733425 -2.849842197630654e-07 -0.33027563434690727
  outer loop
    vertex 27.85144988545557 0.14854669814637175 17.84917439132366
    vertex 27.9624034074514 53.96239186827273 18.16621859906553
    vertex 27.962387126103486 0.0376081317272654 18.16621859906553
  endloop
endfacet
facet normal 0.9438845296733425 -2.849842197630654e-07 -0.33027563434690727
  outer loop
    vertex 27.9624034074514 53.96239186827273 18.16621859906553
    vertex 27.85144988545557 0.14854669814637175 17.84917439132366
    vertex 27.85146609981279 53.851453301853624 17.84917439132366
  endloop
endfacet
facet normal 8.017566307288102e-16 0.9937122098932446 -0.11196447610329127
  outer loop
    vertex 0.0 54.000000000000014 18.5
    vertex 27.9624034074514 53.96239186827273 18.16621859906553
    vertex 0.037608131727264515 53.96239186827275 18.16621859906553
  endloop
endfacet
facet normal 8.017566307288102e-16 0.9937122098932446 -0.11196447610329127
  outer loop
    vertex 27.9624034074514 53.96239186827273 18.16621859906553
    vertex 0.0 54.000000000000014 18.5
    vertex 28.000010190036082 53.99999999999999 18.5
  endloop
endfacet
facet normal 1.5844705394736802e-16 0.5320320765153372 -0.8467241992282837
  outer loop
    vertex 27.435249502436193 53.43523470278811 17.327252776297957
    vertex 0.849174391323663 53.15082560867635 17.14854669814637
    vertex 0.5647652972118998 53.43523470278812 17.327252776297957
  endloop
endfacet
facet normal 1.5844705394736802e-16 0.5320320765153372 -0.8467241992282837
  outer loop
    vertex 0.849174391323663 53.15082560867635 17.14854669814637
    vertex 27.435249502436193 53.43523470278811 17.327252776297957
    vertex 27.150841050859825 53.15082560867635 17.148546698146372
  endloop
endfacet
facet normal 0.11196452687821518 -3.380511316494326e-08 -0.9937122041722826
  outer loop
    vertex 26.500015851154714 52.500000000000014 17.0
    vertex 26.833781599746317 1.1662185990655274 17.037608131727264
    vertex 26.500000452877963 1.4999999999999987 17.0
  endloop
endfacet
facet normal 0.11196452687821518 -3.380511316494326e-08 -0.9937122041722826
  outer loop
    vertex 26.833781599746317 1.1662185990655274 17.037608131727264
    vertex 26.500015851154714 52.500000000000014 17.0
    vertex 26.833797199578303 52.83378140093449 17.037608131727264
  endloop
endfacet
facet normal 3.513845436406405e-20 -0.9937122098932426 -0.11196447610330718
  outer loop
    vertex 27.99999388597835 1.105918240853536e-15 18.5
    vertex 0.037608131727264515 0.0376081317272654 18.16621859906553
    vertex 27.962387126103486 0.0376081317272654 18.16621859906553
  endloop
endfacet
facet normal 3.513845436406405e-20 -0.9937122098932426 -0.11196447610330718
  outer loop
    vertex 0.037608131727264515 0.0376081317272654 18.16621859906553
    vertex 27.99999388597835 1.105918240853536e-15 18.5
    vertex 0.0 1.105918240853536e-15 18.5
  endloop
endfacet
facet normal 5.192725826426651e-17 0.33027906195517115 -0.9438833303083662
  outer loop
    vertex 27.150841050859825 53.15082560867635 17.148546698146372
    vertex 1.1662185990655287 52.83378140093449 17.037608131727264
    vertex 0.849174391323663 53.15082560867635 17.14854669814637
  endloop
endfacet
facet normal 5.192725826426651e-17 0.33027906195517115 -0.9438833303083662
  outer loop
    vertex 1.1662185990655287 52.83378140093449 17.037608131727264
    vertex 27.150841050859825 53.15082560867635 17.148546698146372
    vertex 26.833797199578303 52.83378140093449 17.037608131727264
  endloop
endfacet
facet normal -3.530841343772461e-18 -0.5320320765153428 -0.8467241992282802
  outer loop
    vertex 0.8491743913236628 0.8491743913236622 17.14854669814637
    vertex 27.43523353941423 0.5647652972118993 17.327252776297957
    vertex 0.5647652972118996 0.5647652972118994 17.327252776297957
  endloop
endfacet
facet normal -3.530841343772461e-18 -0.5320320765153428 -0.8467241992282802
  outer loop
    vertex 27.43523353941423 0.5647652972118993 17.327252776297957
    vertex 0.8491743913236628 0.8491743913236622 17.14854669814637
    vertex 27.15082525957943 0.8491743913236621 17.14854669814637
  endloop
endfacet
facet normal -4.8123741040602757e-20 -0.11196447610330772 -0.9937122098932426
  outer loop
    vertex 1.5 1.4999999999999987 17.0
    vertex 26.833781599746317 1.1662185990655274 17.037608131727264
    vertex 1.1662185990655285 1.1662185990655274 17.037608131727264
  endloop
endfacet
facet normal -4.8123741040602757e-20 -0.11196447610330772 -0.9937122098932426
  outer loop
    vertex 26.833781599746317 1.1662185990655274 17.037608131727264
    vertex 1.5 1.4999999999999987 17.0
    vertex 26.500000452877963 1.4999999999999987 17.0
  endloop
endfacet
facet normal -0.943883330308368 1.5502974755978124e-18 -0.33027906195516615
  outer loop
    vertex 0.037608131727264515 53.96239186827275 18.16621859906553
    vertex 0.14854669814637123 0.14854669814637175 17.84917439132366
    vertex 0.037608131727264515 0.0376081317272654 18.16621859906553
  endloop
endfacet
facet normal -0.943883330308368 1.5502974755978124e-18 -0.33027906195516615
  outer loop
    vertex 0.14854669814637123 0.14854669814637175 17.84917439132366
    vertex 0.037608131727264515 53.96239186827275 18.16621859906553
    vertex 0.1485466981463714 53.851453301853645 17.84917439132366
  endloop
endfacet
facet normal -0.7071067811865467 9.820247913295242e-19 -0.7071067811865485
  outer loop
    vertex 0.5647652972118998 53.43523470278812 17.327252776297957
    vertex 0.32725277629795535 0.32725277629795535 17.5647652972119
    vertex 0.32725277629795535 53.67274722370206 17.5647652972119
  endloop
endfacet
facet normal -0.7071067811865467 9.820247913295242e-19 -0.7071067811865485
  outer loop
    vertex 0.32725277629795535 0.32725277629795535 17.5647652972119
    vertex 0.5647652972118998 53.43523470278812 17.327252776297957
    vertex 0.5647652972118996 0.5647652972118994 17.327252776297957
  endloop
endfacet
facet normal -2.1536992522180665e-18 -0.7071067811865471 -0.707106781186548
  outer loop
    vertex 0.5647652972118996 0.5647652972118994 17.327252776297957
    vertex 27.672745020514252 0.32725277629795535 17.5647652972119
    vertex 0.32725277629795535 0.32725277629795535 17.5647652972119
  endloop
endfacet
facet normal -2.1536992522180665e-18 -0.7071067811865471 -0.707106781186548
  outer loop
    vertex 27.672745020514252 0.32725277629795535 17.5647652972119
    vertex 0.5647652972118996 0.5647652972118994 17.327252776297957
    vertex 27.43523353941423 0.5647652972118993 17.327252776297957
  endloop
endfacet
facet normal -0.5320320765153425 1.6565790335476094e-18 -0.8467241992282806
  outer loop
    vertex 0.5647652972118998 53.43523470278812 17.327252776297957
    vertex 0.8491743913236628 0.8491743913236622 17.14854669814637
    vertex 0.5647652972118996 0.5647652972118994 17.327252776297957
  endloop
endfacet
facet normal -0.5320320765153425 1.6565790335476094e-18 -0.8467241992282806
  outer loop
    vertex 0.8491743913236628 0.8491743913236622 17.14854669814637
    vertex 0.5647652972118998 53.43523470278812 17.327252776297957
    vertex 0.849174391323663 53.15082560867635 17.14854669814637
  endloop
endfacet
facet normal -0.9937122098932426 2.3539933904558102e-21 -0.11196447610330783
  outer loop
    vertex 0.0 54.000000000000014 18.5
    vertex 0.037608131727264515 0.0376081317272654 18.16621859906553
    vertex 0.0 1.105918240853536e-15 18.5
  endloop
endfacet
facet normal -0.9937122098932426 2.3539933904558102e-21 -0.11196447610330783
  outer loop
    vertex 0.037608131727264515 0.0376081317272654 18.16621859906553
    vertex 0.0 54.000000000000014 18.5
    vertex 0.037608131727264515 53.96239186827275 18.16621859906553
  endloop
endfacet
facet normal 8.123583564609352e-20 -0.8467241992282837 -0.5320320765153372
  outer loop
    vertex 27.85144988545557 0.14854669814637175 17.84917439132366
    vertex 0.32725277629795535 0.32725277629795535 17.5647652972119
    vertex 27.672745020514252 0.32725277629795535 17.5647652972119
  endloop
endfacet
facet normal 8.123583564609352e-20 -0.8467241992282837 -0.5320320765153372
  outer loop
    vertex 0.32725277629795535 0.32725277629795535 17.5647652972119
    vertex 27.85144988545557 0.14854669814637175 17.84917439132366
    vertex 0.14854669814637123 0.14854669814637175 17.84917439132366
  endloop
endfacet
facet normal -0.11196447610330769 3.804022296164448e-19 -0.9937122098932426
  outer loop
    vertex 1.1662185990655287 52.83378140093449 17.037608131727264
    vertex 1.5 1.4999999999999987 17.0
    vertex 1.1662185990655285 1.1662185990655274 17.037608131727264
  endloop
endfacet
facet normal -0.11196447610330769 3.804022296164448e-19 -0.9937122098932426
  outer loop
    vertex 1.5 1.4999999999999987 17.0
    vertex 1.1662185990655287 52.83378140093449 17.037608131727264
    vertex 1.5 52.500000000000014 17.0
  endloop
endfacet
facet normal 7.174615682693733e-20 -0.9438833303083684 -0.33027906195516493
  outer loop
    vertex 27.962387126103486 0.0376081317272654 18.16621859906553
    vertex 0.14854669814637123 0.14854669814637175 17.84917439132366
    vertex 27.85144988545557 0.14854669814637175 17.84917439132366
  endloop
endfacet
facet normal 7.174615682693733e-20 -0.9438833303083684 -0.33027906195516493
  outer loop
    vertex 0.14854669814637123 0.14854669814637175 17.84917439132366
    vertex 27.962387126103486 0.0376081317272654 18.16621859906553
    vertex 0.037608131727264515 0.0376081317272654 18.16621859906553
  endloop
endfacet
facet normal -0.33027906195516327 1.6413239010140748e-18 -0.943883330308369
  outer loop
    vertex 0.849174391323663 53.15082560867635 17.14854669814637
    vertex 1.1662185990655285 1.1662185990655274 17.037608131727264
    vertex 0.8491743913236628 0.8491743913236622 17.14854669814637
  endloop
endfacet
facet normal -0.33027906195516327 1.6413239010140748e-18 -0.943883330308369
  outer loop
    vertex 1.1662185990655285 1.1662185990655274 17.037608131727264
    vertex 0.849174391323663 53.15082560867635 17.14854669814637
    vertex 1.1662185990655287 52.83378140093449 17.037608131727264
  endloop
endfacet
facet normal -0.8467241992282831 1.4482518385146915e-18 -0.5320320765153382
  outer loop
    vertex 0.1485466981463714 53.851453301853645 17.84917439132366
    vertex 0.32725277629795535 0.32725277629795535 17.5647652972119
    vertex 0.14854669814637123 0.14854669814637175 17.84917439132366
  endloop
endfacet
facet normal -0.8467241992282831 1.4482518385146915e-18 -0.5320320765153382
  outer loop
    vertex 0.32725277629795535 0.32725277629795535 17.5647652972119
    vertex 0.1485466981463714 53.851453301853645 17.84917439132366
    vertex 0.32725277629795535 53.67274722370206 17.5647652972119
  endloop
endfacet
endsolid ImuEnclosureLid
