solid PWMHapticControlerTop
facet normal -7.567478721220809e-18 2.8982870208433204e-17 -1.0
  outer loop
    vertex 57.0 57.0 17.099999999999998
    vertex 0.0 0.0 17.099999999999998
    vertex 0.0 57.0 17.099999999999998
  endloop
endfacet
facet normal -7.567478721220809e-18 2.8982870208433204e-17 -1.0
  outer loop
    vertex 0.0 0.0 17.099999999999998
    vertex 57.0 57.0 17.099999999999998
    vertex 57.0 0.0 17.099999999999998
  endloop
endfacet
facet normal 0.0 0.0 1.0
  outer loop
    vertex 0.0 0.0 19.099999999999998
    vertex 2.000000000000001 2.0000000000000004 19.099999999999998
    vertex 0.0 57.0 19.099999999999998
  endloop
endfacet
facet normal 0.0 0.0 1.0
  outer loop
    vertex 2.000000000000001 2.0000000000000004 19.099999999999998
    vertex 0.0 0.0 19.099999999999998
    vertex 57.0 0.0 19.099999999999998
  endloop
endfacet
facet normal 0.0 0.0 1.0
  outer loop
    vertex 0.0 57.0 19.099999999999998
    vertex 2.000000000000001 2.0000000000000004 19.099999999999998
    vertex 1.999999999999999 55.0 19.099999999999998
  endloop
endfacet
facet normal 0.0 0.0 1.0
  outer loop
    vertex 2.000000000000001 2.0000000000000004 19.099999999999998
    vertex 57.0 0.0 19.099999999999998
    vertex 55.0 1.9999999999999991 19.099999999999998
  endloop
endfacet
facet normal 0.0 0.0 1.0
  outer loop
    vertex 55.0 1.9999999999999991 19.099999999999998
    vertex 57.0 0.0 19.099999999999998
    vertex 55.0 55.0 19.099999999999998
  endloop
endfacet
facet normal 0.0 0.0 1.0
  outer loop
    vertex 1.999999999999999 55.0 19.099999999999998
    vertex 57.0 57.0 19.099999999999998
    vertex 0.0 57.0 19.099999999999998
  endloop
endfacet
facet normal 0.0 0.0 1.0
  outer loop
    vertex 57.0 57.0 19.099999999999998
    vertex 1.999999999999999 55.0 19.099999999999998
    vertex 55.0 55.0 19.099999999999998
  endloop
endfacet
facet normal 0.0 0.0 1.0
  outer loop
    vertex 57.0 57.0 19.099999999999998
    vertex 55.0 55.0 19.099999999999998
    vertex 57.0 0.0 19.099999999999998
  endloop
endfacet
facet normal 0.0 1.0 0.0
  outer loop
    vertex 0.0 57.0 19.099999999999998
    vertex 57.0 57.0 17.099999999999998
    vertex 0.0 57.0 17.099999999999998
  endloop
endfacet
facet normal 0.0 1.0 0.0
  outer loop
    vertex 57.0 57.0 17.099999999999998
    vertex 0.0 57.0 19.099999999999998
    vertex 57.0 57.0 19.099999999999998
  endloop
endfacet
facet normal 1.0 0.0 0.0
  outer loop
    vertex 57.0 57.0 17.099999999999998
    vertex 57.0 0.0 19.099999999999998
    vertex 57.0 0.0 17.099999999999998
  endloop
endfacet
facet normal 1.0 0.0 0.0
  outer loop
    vertex 57.0 0.0 19.099999999999998
    vertex 57.0 57.0 17.099999999999998
    vertex 57.0 57.0 19.099999999999998
  endloop
endfacet
facet normal 0.0 -1.0 0.0
  outer loop
    vertex 57.0 0.0 19.099999999999998
    vertex 0.0 0.0 17.099999999999998
    vertex 57.0 0.0 17.099999999999998
  endloop
endfacet
facet normal 0.0 -1.0 0.0
  outer loop
    vertex 0.0 0.0 17.099999999999998
    vertex 57.0 0.0 19.099999999999998
    vertex 0.0 0.0 19.099999999999998
  endloop
endfacet
facet normal -1.0 0.0 0.0
  outer loop
    vertex 0.0 57.0 19.099999999999998
    vertex 0.0 0.0 17.099999999999998
    vertex 0.0 0.0 19.099999999999998
  endloop
endfacet
facet normal -1.0 0.0 0.0
  outer loop
    vertex 0.0 0.0 17.099999999999998
    vertex 0.0 57.0 19.099999999999998
    vertex 0.0 57.0 17.099999999999998
  endloop
endfacet
facet normal 0.0 0.0 1.0
  outer loop
    vertex 2.000000000000001 2.0000000000000004 21.099999999999998
    vertex 55.0 55.0 21.099999999999998
    vertex 1.999999999999999 55.0 21.099999999999998
  endloop
endfacet
facet normal 0.0 0.0 1.0
  outer loop
    vertex 55.0 55.0 21.099999999999998
    vertex 2.000000000000001 2.0000000000000004 21.099999999999998
    vertex 55.0 1.9999999999999991 21.099999999999998
  endloop
endfacet
facet normal 1.0 0.0 0.0
  outer loop
    vertex 55.0 55.0 19.099999999999998
    vertex 55.0 1.9999999999999991 21.099999999999998
    vertex 55.0 1.9999999999999991 19.099999999999998
  endloop
endfacet
facet normal 1.0 0.0 0.0
  outer loop
    vertex 55.0 1.9999999999999991 21.099999999999998
    vertex 55.0 55.0 19.099999999999998
    vertex 55.0 55.0 21.099999999999998
  endloop
endfacet
facet normal 0.0 1.0 0.0
  outer loop
    vertex 1.999999999999999 55.0 21.099999999999998
    vertex 55.0 55.0 19.099999999999998
    vertex 1.999999999999999 55.0 19.099999999999998
  endloop
endfacet
facet normal 0.0 1.0 0.0
  outer loop
    vertex 55.0 55.0 19.099999999999998
    vertex 1.999999999999999 55.0 21.099999999999998
    vertex 55.0 55.0 21.099999999999998
  endloop
endfacet
facet normal -1.0 -3.9905186073791e-17 -0.0
  outer loop
    vertex 1.999999999999999 55.0 21.099999999999998
    vertex 2.000000000000001 2.0000000000000004 19.099999999999998
    vertex 2.000000000000001 2.0000000000000004 21.099999999999998
  endloop
endfacet
facet normal -1.0 -3.9905186073791e-17 -0.0
  outer loop
    vertex 2.000000000000001 2.0000000000000004 19.099999999999998
    vertex 1.999999999999999 55.0 21.099999999999998
    vertex 1.999999999999999 55.0 19.099999999999998
  endloop
endfacet
facet normal -2.6603457382527333e-17 -1.0 -0.0
  outer loop
    vertex 55.0 1.9999999999999991 21.099999999999998
    vertex 2.000000000000001 2.0000000000000004 19.099999999999998
    vertex 55.0 1.9999999999999991 19.099999999999998
  endloop
endfacet
facet normal -2.6603457382527333e-17 -1.0 -0.0
  outer loop
    vertex 2.000000000000001 2.0000000000000004 19.099999999999998
    vertex 55.0 1.9999999999999991 21.099999999999998
    vertex 2.000000000000001 2.0000000000000004 21.099999999999998
  endloop
endfacet
endsolid PWMHapticControlerTop
